<?xml version="1.0" encoding="UTF-8" standalone="no"?>
<svg
   version="1.0"
   width="4096.000000pt"
   height="4946.000000pt"
   viewBox="0 0 4096.000000 4946.000000"
   preserveAspectRatio="xMidYMid meet"
   id="svg199"
   sodipodi:docname="tinywow_golden-state-warriors-logo-1-1_22485828.svg"
   xml:space="preserve"
   inkscape:version="1.2.2 (732a01da63, 2022-12-09)"
   xmlns:inkscape="http://www.inkscape.org/namespaces/inkscape"
   xmlns:sodipodi="http://sodipodi.sourceforge.net/DTD/sodipodi-0.dtd"
   xmlns="http://www.w3.org/2000/svg"
   xmlns:svg="http://www.w3.org/2000/svg"><defs
     id="defs203" /><sodipodi:namedview
     id="namedview201"
     pagecolor="#ffffff"
     bordercolor="#000000"
     borderopacity="0.25"
     inkscape:showpageshadow="2"
     inkscape:pageopacity="0.0"
     inkscape:pagecheckerboard="0"
     inkscape:deskcolor="#d1d1d1"
     inkscape:document-units="pt"
     showgrid="false"
     inkscape:zoom="0.11751921"
     inkscape:cx="2727.2138"
     inkscape:cy="3297.3333"
     inkscape:window-width="1920"
     inkscape:window-height="991"
     inkscape:window-x="-9"
     inkscape:window-y="-9"
     inkscape:window-maximized="1"
     inkscape:current-layer="svg199" /><metadata
     id="metadata107">
Created by potrace 1.16, written by Peter Selinger 2001-2019
</metadata><g
     transform="matrix(0.09681401,0,0,-0.09754832,79.43107,4882.1776)"
     fill="#000000"
     stroke="none"
     id="g197"><path
       d="m 18480,49365 v -94 l 125,-88 125,-88 v -1452 -1453 h 390 390 l 2,978 3,978 741,-975 741,-976 396,-3 397,-2 v 1635 1635 h -395 -395 l -2,-980 -3,-980 -738,980 -739,980 h -519 -519 z"
       id="path109"
       style="fill:#1d428a;fill-opacity:1" /><path
       d="m 16320,49169 c -520,-92 -1042,-184 -1160,-204 -118,-20 -265,-45 -326,-56 l -111,-21 14,-61 c 34,-148 19,-130 162,-202 l 129,-64 12,-68 c 152,-875 491,-2787 495,-2791 6,-6 2237,378 2246,387 5,5 -117,660 -125,668 -1,1 -322,-53 -714,-121 -391,-67 -712,-119 -712,-116 0,3 -25,142 -55,309 -31,167 -54,305 -53,307 2,1 259,47 571,100 312,54 573,101 579,105 8,5 5,47 -11,151 -29,192 -92,518 -100,518 -3,0 -265,-45 -581,-100 -316,-54 -575,-98 -577,-97 -4,4 -101,571 -98,575 1,1 293,54 649,116 356,63 650,117 653,119 4,5 65,709 60,712 -1,1 -427,-74 -947,-166 z"
       id="path111"
       style="fill:#1d428a;fill-opacity:1" /><path
       d="m 26230,48710 c -323,-31 -588,-185 -750,-437 -96,-149 -140,-304 -140,-492 0,-168 27,-286 100,-431 84,-166 132,-220 611,-685 230,-224 260,-266 260,-359 0,-99 -50,-175 -145,-218 -43,-19 -67,-23 -156,-22 -87,1 -119,6 -185,28 -246,84 -492,277 -688,539 -45,59 -84,104 -88,100 -3,-5 -57,-189 -119,-411 l -113,-403 29,-30 c 47,-50 216,-174 321,-235 179,-106 490,-228 683,-268 429,-90 828,3 1081,254 271,269 358,703 205,1025 -83,175 -167,276 -484,582 -370,356 -386,373 -422,447 -28,57 -32,73 -27,117 8,64 32,105 85,146 83,63 201,67 368,12 194,-65 381,-189 591,-393 91,-88 144,-133 147,-125 3,8 51,174 107,369 56,195 104,360 106,367 11,30 -243,209 -437,307 -330,168 -656,242 -940,216 z"
       id="path113"
       style="fill:#1d428a;fill-opacity:1" /><path
       d="m 12410,48120 c -254,-28 -374,-64 -1075,-320 -316,-116 -577,-210 -581,-210 -6,0 -327,-122 -333,-127 -6,-4 60,-176 73,-189 6,-6 79,-29 161,-49 83,-21 155,-43 162,-49 6,-6 231,-616 498,-1356 268,-739 487,-1346 489,-1347 7,-8 1293,469 1391,516 870,416 1223,1192 929,2045 -196,567 -614,947 -1168,1061 -138,29 -399,41 -546,25 z m 235,-725 c 166,-29 323,-111 440,-229 111,-111 190,-249 255,-445 48,-145 64,-253 58,-390 -6,-126 -45,-256 -110,-365 -84,-142 -268,-302 -429,-375 -77,-34 -509,-184 -515,-178 -6,6 -644,1780 -641,1783 12,10 513,176 569,188 139,29 248,33 373,11 z"
       id="path115"
       style="fill:#1d428a;fill-opacity:1" /><path
       d="m 28752,47534 c -78,-168 -142,-311 -142,-317 0,-7 210,-108 465,-226 413,-190 463,-215 455,-231 -49,-91 -1079,-2317 -1076,-2325 4,-11 745,-370 750,-364 2,2 248,532 547,1177 298,644 548,1172 553,1172 6,0 214,-97 461,-215 248,-118 455,-215 461,-215 10,0 294,595 294,616 0,7 -2561,1211 -2619,1232 -4,1 -71,-135 -149,-304 z"
       id="path117"
       style="fill:#1d428a;fill-opacity:1" /><path
       d="m 7700,45974 c -124,-74 -270,-160 -325,-191 -251,-139 -335,-189 -335,-197 0,-4 21,-46 47,-91 l 48,-84 80,-5 c 44,-4 100,-7 123,-9 l 44,-2 732,-1270 c 535,-928 737,-1270 749,-1269 12,1 1998,1148 2025,1170 5,3 -195,705 -202,712 -3,2 -334,-186 -736,-418 -402,-232 -732,-421 -734,-419 -2,2 -290,499 -639,1104 -350,605 -639,1101 -644,1102 -4,1 -109,-59 -233,-133 z"
       id="path119"
       style="fill:#1d428a;fill-opacity:1" /><path
       d="m 32742,45711 -51,-80 44,-108 c 24,-59 42,-108 42,-109 -1,0 -504,-357 -1117,-792 l -1115,-791 -97,-140 c -54,-77 -98,-144 -98,-148 0,-8 552,-393 563,-393 3,0 57,58 121,129 l 115,129 176,91 c 100,52 181,89 188,85 10,-6 990,-675 993,-678 0,-1 -6,-91 -14,-201 l -14,-200 -80,-159 c -44,-87 -76,-162 -71,-166 27,-24 540,-374 553,-377 10,-2 48,43 114,138 l 98,142 374,1501 c 206,826 374,1506 374,1511 -1,10 -1011,687 -1034,693 -7,2 -36,-33 -64,-77 z m 102,-1566 c -80,-297 -147,-542 -149,-543 -2,-2 -141,90 -309,205 -238,162 -303,211 -293,220 17,16 892,662 894,659 1,-1 -63,-244 -143,-541 z"
       id="path121"
       style="fill:#1d428a;fill-opacity:0.941176" /><path
       d="m 19465,45264 c -38,-2 -171,-8 -295,-14 C 14695,45040 10416,43290 7056,40295 6484,39785 5852,39148 5350,38575 2475,35295 777,31166 520,26825 c -43,-735 -43,-1655 0,-2385 262,-4396 1988,-8551 4924,-11855 549,-618 1250,-1307 1876,-1846 1513,-1301 3210,-2363 5033,-3150 2017,-872 4191,-1400 6387,-1554 531,-37 652,-40 1415,-40 787,1 990,7 1540,51 3144,248 6136,1230 8810,2893 2661,1654 4904,3938 6517,6637 2240,3747 3157,8143 2612,12519 -482,3871 -2117,7515 -4690,10455 -498,570 -1106,1187 -1654,1681 -1900,1711 -4109,3033 -6505,3894 -1620,581 -3297,943 -5035,1085 -538,44 -763,52 -1500,55 -393,1 -746,1 -785,-1 z m 1550,-1484 c 478,-26 885,-60 1275,-105 3470,-407 6736,-1809 9428,-4047 484,-403 768,-663 1262,-1157 461,-461 689,-707 1040,-1121 2488,-2934 3973,-6570 4244,-10390 36,-508 41,-656 41,-1330 0,-674 -5,-822 -41,-1330 -271,-3820 -1756,-7456 -4244,-10390 -536,-632 -1227,-1340 -1845,-1890 -2866,-2550 -6445,-4111 -10255,-4474 -656,-63 -1048,-81 -1775,-81 -595,0 -844,8 -1295,41 -3145,225 -6112,1234 -8720,2964 -1640,1089 -3130,2471 -4355,4040 -1032,1322 -1881,2798 -2507,4360 -1047,2613 -1470,5481 -1228,8320 398,4649 2535,8895 6058,12036 2871,2561 6451,4125 10277,4489 419,39 739,60 1260,79 177,7 1194,-3 1380,-14 z"
       id="path123"
       style="fill:#1d428a;fill-opacity:1" /><path
       d="M 19420,42809 C 16288,42679 13297,41717 10700,40005 9260,39056 7969,37895 6864,36555 4699,33929 3362,30724 3015,27325 c -119,-1168 -122,-2236 -9,-3395 30,-316 70,-649 78,-657 2,-2 65,44 142,102 1161,884 2572,2528 4235,4940 801,1160 1717,2602 2470,3887 l 160,273 -8,530 c -4,292 -8,609 -8,705 v 175 l 210,112 210,112 3,224 2,224 438,102 c 240,56 447,105 460,108 l 22,5 v -606 -606 h 365 365 v 575 c 0,453 3,575 13,575 6,0 201,-44 432,-98 l 420,-98 7,-200 c 9,-258 36,-1192 44,-1541 l 7,-272 91,-117 c 50,-65 127,-156 171,-203 75,-80 168,-183 419,-465 271,-305 1252,-1281 1741,-1732 2789,-2573 6388,-5065 10160,-7037 121,-63 335,-176 475,-251 398,-213 1050,-538 1960,-977 1000,-482 1040,-500 1575,-736 1554,-685 2999,-1267 4510,-1816 663,-241 1643,-583 1650,-575 2,2 40,89 85,193 1082,2507 1549,5215 1375,7970 -242,3806 -1748,7412 -4293,10275 -328,369 -848,901 -1182,1211 -1829,1693 -3907,2930 -6220,3700 -1560,519 -3110,801 -4780,869 -278,11 -1112,11 -1390,-1 z"
       id="path125"
       style="fill:#1d428a;fill-opacity:1" /><path
       d="m 11430,31190 v -330 h 370 370 v 330 330 h -370 -370 z"
       id="path127"
       style="fill:#1d428a;fill-opacity:1" /><path
       d="m 13613,30890 c 3,-14 666,-2383 1472,-5265 806,-2882 1694,-6056 1973,-7053 l 507,-1813 205,6 c 113,4 514,17 892,29 378,12 690,25 694,29 7,6 -3474,11768 -3500,11828 -6,14 -87,95 -181,180 -628,572 -1498,1445 -2019,2029 -39,43 -48,50 -43,30 z"
       id="path129"
       style="fill:#1d428a;fill-opacity:1" /><path
       d="M 9496,30461 C 8625,28921 7778,27597 6865,26350 l -172,-235 -1123,-3771 -1122,-3770 93,-200 c 195,-419 481,-967 719,-1378 157,-271 364,-606 371,-598 8,9 4011,14303 4007,14307 -2,2 -66,-108 -142,-244 z"
       id="path131"
       style="fill:#1d428a;fill-opacity:1" /><path
       d="m 13151,30590 c -2,-170 89,-3264 144,-4885 l 24,-720 1085,-4144 c 597,-2279 1088,-4146 1090,-4149 8,-7 1539,49 1547,57 5,5 -3836,13771 -3879,13906 -8,24 -10,11 -11,-65 z"
       id="path133"
       style="fill:#1d428a;fill-opacity:1" /><path
       d="M 9337,27737 C 8909,26207 8020,23029 7361,20675 l -1197,-4280 60,-3 c 71,-4 1529,48 1535,54 3,2 523,1983 1156,4402 l 1152,4397 12,670 c 7,369 16,938 21,1265 11,648 26,3340 19,3340 -2,0 -354,-1252 -782,-2783 z"
       id="path135"
       style="fill:#1d428a;fill-opacity:1" /><path
       d="m 11430,29345 v -535 h 370 370 v 535 535 h -370 -370 z"
       id="path137"
       style="fill:#1d428a;fill-opacity:1" /><path
       d="m 16582,27990 c 9,-43 3310,-11145 3317,-11152 6,-7 1338,36 1521,49 l 105,8 -1446,4635 c -796,2549 -1463,4687 -1483,4750 l -36,115 -207,160 c -465,359 -887,702 -1393,1134 -190,162 -354,301 -364,310 -18,15 -19,15 -14,-9 z"
       id="path139"
       style="fill:#1d428a;fill-opacity:1" /><path
       d="m 11430,27305 v -525 h 370 370 v 525 525 h -370 -370 z"
       id="path141"
       style="fill:#1d428a;fill-opacity:1" /><path
       d="m 19274,25833 c 48,-163 2781,-8920 2785,-8924 5,-6 1040,26 1538,46 l 162,7 -313,932 c -172,512 -740,2200 -1261,3751 l -947,2820 -186,125 c -388,260 -743,511 -1369,967 -222,161 -406,293 -409,293 -3,0 -3,-8 0,-17 z"
       id="path143"
       style="fill:#1d428a;fill-opacity:1" /><path
       d="m 11432,24808 3,-993 h 365 365 l 3,993 2,992 h -370 -370 z"
       id="path145"
       style="fill:#1d428a;fill-opacity:1" /><path
       d="M 5729,24888 C 4952,23967 4115,23123 3403,22542 l -150,-122 19,-98 c 153,-807 415,-1750 724,-2607 134,-374 150,-413 157,-390 165,547 1686,5679 1684,5682 -2,2 -51,-52 -108,-119 z"
       id="path147"
       style="fill:#1d428a;fill-opacity:1" /><path
       d="m 21932,23989 c 3,-8 533,-1584 1178,-3504 645,-1919 1176,-3494 1181,-3500 9,-9 1598,41 1608,50 2,2 -453,1298 -1010,2880 -960,2724 -1016,2877 -1044,2894 -79,48 -811,498 -970,596 -99,62 -346,217 -550,347 -444,281 -400,255 -393,237 z"
       id="path149"
       style="fill:#1d428a;fill-opacity:1" /><path
       d="m 9997,22988 c -4,-13 -391,-1485 -861,-3272 -471,-1787 -853,-3252 -851,-3255 5,-4 1080,24 1337,36 l 137,6 5,41 c 5,40 46,927 86,1891 44,1057 93,2407 125,3450 28,912 33,1120 30,1123 -1,2 -5,-7 -8,-20 z"
       id="path151"
       style="fill:#1d428a;fill-opacity:1" /><path
       d="m 11430,21815 v -1025 h 370 370 v 1025 1025 h -370 -370 z"
       id="path153"
       style="fill:#1d428a;fill-opacity:1" /><path
       d="m 13381,22598 c -1,-37 8,-312 19,-610 11,-299 36,-979 55,-1513 38,-1041 86,-2315 110,-2875 8,-190 19,-482 26,-650 7,-168 15,-309 19,-313 6,-6 1340,31 1348,38 2,2 -1537,5859 -1562,5945 l -14,45 z"
       id="path155"
       style="fill:#1d428a;fill-opacity:1" /><path
       d="m 24604,22248 c 93,-267 1829,-5183 1830,-5185 2,-3 1547,45 1694,53 68,3 122,10 120,14 -2,4 -358,931 -792,2059 l -789,2050 -256,137 c -141,76 -542,295 -891,488 -349,194 -669,369 -710,390 -41,22 -115,63 -163,93 -49,29 -90,53 -92,53 -3,0 20,-69 49,-152 z"
       id="path157"
       style="fill:#1d428a;fill-opacity:1" /><path
       d="m 27350,20863 c 0,-3 322,-844 716,-1868 l 717,-1863 96,4 c 53,3 449,16 881,30 431,14 786,27 788,29 9,8 -1104,2678 -1118,2683 -8,2 -130,56 -270,120 -252,113 -602,282 -1394,671 -225,111 -410,201 -412,201 -2,0 -4,-3 -4,-7 z"
       id="path159"
       style="fill:#1d428a;fill-opacity:1" /><path
       d="m 11430,18190 v -1621 l 103,6 c 105,6 580,25 617,25 h 20 v 1605 1605 h -370 -370 z"
       id="path161"
       style="fill:#1d428a;fill-opacity:1" /><path
       d="m 30144,19522 c 4,-9 223,-531 489,-1160 l 482,-1144 180,7 c 99,4 494,17 878,29 383,13 700,26 703,29 7,7 -562,1293 -580,1314 -6,7 -168,78 -361,158 -612,256 -1180,503 -1664,724 -99,45 -131,56 -127,43 z"
       id="path163"
       style="fill:#1d428a;fill-opacity:1" /><path
       d="m 32985,18291 c 5,-18 444,-993 448,-998 2,-1 1431,44 1779,57 4,0 17,19 29,41 25,50 29,46 -96,90 -307,109 -1145,429 -1888,723 -147,58 -270,106 -273,106 -3,0 -3,-9 1,-19 z"
       id="path165"
       style="fill:#1d428a;fill-opacity:1" /><path
       d="m 13655,15489 c 4,-52 8,-95 9,-95 2,-3 939,-21 4186,-84 1697,-33 3315,-64 3595,-70 548,-11 2450,-48 4120,-80 567,-11 1257,-24 1535,-30 278,-6 1783,-35 3345,-65 1562,-29 2922,-56 3021,-60 l 182,-6 53,68 c 79,98 308,407 305,410 -2,2 -3161,19 -7022,38 -9746,48 -10923,54 -12207,61 l -1129,7 z"
       id="path167" /><path
       d="m 6967,14586 c 13,-23 332,-394 460,-533 64,-70 301,-313 527,-538 503,-502 729,-710 1186,-1091 287,-238 343,-284 347,-280 9,9 178,2344 170,2352 -4,4 -2552,103 -2665,104 -26,0 -31,-3 -25,-14 z"
       id="path169"
       style="fill:#1d428a;fill-opacity:1" /><path
       d="m 11450,12635 v -1824 l 88,-54 c 155,-95 622,-357 638,-357 2,0 4,860 4,1910 0,1051 4,1910 8,1910 5,0 215,-70 468,-156 252,-86 599,-203 769,-261 171,-57 313,-108 317,-112 4,-3 19,-245 33,-536 36,-743 91,-1783 120,-2285 29,-484 83,-1292 87,-1295 2,-2 82,-32 178,-68 1717,-637 3457,-983 5330,-1058 541,-22 1466,-3 2020,41 2653,212 5181,1017 7440,2370 986,590 1874,1247 2735,2024 329,296 847,807 833,821 -4,4 -701,29 -5013,180 -1023,36 -2310,81 -2860,100 -550,19 -1254,44 -1565,55 -311,11 -1402,49 -2425,85 -1023,36 -2114,74 -2425,85 -311,11 -1334,47 -2275,80 -940,33 -1989,71 -2330,85 -400,16 -766,25 -1032,25 -360,0 -413,2 -413,15 0,10 -10,15 -26,15 -37,0 -499,19 -611,25 l -93,4 z"
       id="path171"
       style="fill:#1d428a;fill-opacity:1" /><path
       d="m 5415,44174 c -433,-65 -801,-250 -1104,-554 -375,-376 -559,-823 -537,-1305 16,-361 147,-698 386,-990 84,-103 253,-261 360,-337 166,-118 395,-221 595,-268 203,-47 477,-51 675,-11 495,100 985,449 1260,896 414,672 296,1535 -287,2095 -142,137 -266,224 -438,309 -246,122 -409,161 -690,166 -104,2 -203,1 -220,-1 z m 290,-789 c 86,-23 249,-105 325,-163 205,-156 377,-401 442,-627 20,-68 23,-103 23,-240 0,-140 -3,-169 -23,-235 -44,-139 -119,-265 -219,-366 -215,-218 -495,-328 -750,-294 -234,31 -429,135 -616,329 -140,145 -246,327 -291,501 -27,102 -32,260 -12,360 72,356 378,663 741,744 88,20 293,15 380,-9 z"
       id="path173"
       style="fill:#1d428a;fill-opacity:0.980392" /><path
       d="m 35170,43883 c -85,-91 -192,-205 -238,-253 l -82,-88 380,-352 380,-352 -37,-43 c -21,-24 -416,-449 -878,-944 -462,-496 -840,-907 -840,-914 0,-14 590,-568 603,-566 4,0 402,426 886,945 483,520 882,944 886,942 5,-2 148,-135 319,-296 171,-161 337,-317 369,-347 l 59,-54 229,250 c 126,138 230,255 232,259 3,9 -2081,1968 -2101,1975 -6,2 -82,-71 -167,-162 z"
       id="path175"
       style="fill:#1d428a;fill-opacity:1" /><path
       d="m 38042,41270 -81,-59 4,-48 c 2,-26 7,-100 9,-164 l 5,-116 -1145,-893 c -630,-491 -1144,-896 -1142,-901 2,-5 320,-409 707,-899 640,-810 705,-889 722,-878 82,58 518,405 518,413 0,6 -198,262 -439,569 -242,308 -440,563 -440,566 0,8 478,390 487,390 5,-1 165,-206 357,-457 193,-250 355,-457 362,-460 12,-4 554,403 554,416 -1,3 -165,215 -365,470 l -364,463 231,175 c 192,146 233,173 243,161 8,-7 188,-240 400,-518 213,-278 391,-507 396,-508 7,-3 639,270 657,284 2,1 -296,385 -662,852 -365,468 -666,857 -668,865 -3,15 -250,335 -259,336 -3,1 -42,-26 -87,-59 z"
       id="path177"
       style="fill:#1d428a;fill-opacity:1" /><path
       d="m 2520,41109 c -558,-63 -1040,-361 -1362,-843 -165,-247 -272,-519 -308,-781 -18,-133 -13,-364 10,-499 84,-489 397,-921 858,-1184 512,-292 1121,-297 1634,-13 328,181 660,537 825,881 233,486 229,1030 -11,1507 -66,133 -136,223 -318,409 -108,109 -157,152 -223,191 l -85,51 -288,-371 c -158,-203 -401,-515 -541,-691 -140,-177 -258,-326 -263,-332 -6,-8 72,-75 247,-210 140,-110 261,-199 269,-199 8,0 128,145 267,323 l 252,323 23,-55 c 46,-113 59,-184 59,-326 0,-110 -4,-149 -23,-213 -75,-262 -294,-517 -537,-628 -118,-53 -222,-72 -370,-66 -77,3 -156,12 -195,22 -291,79 -583,313 -728,585 -65,122 -93,226 -99,366 -6,137 9,227 57,346 101,248 330,475 577,573 56,22 63,29 198,206 77,101 218,281 313,399 l 172,215 -47,12 c -56,13 -254,14 -363,2 z"
       id="path179"
       style="fill:#1d428a;fill-opacity:1" /><path
       d="m 2163,14556 c -89,-77 -110,-100 -107,-118 2,-13 15,-120 29,-239 l 26,-215 -1056,-2090 C 475,10745 0,9800 0,9793 c 0,-21 840,-938 858,-936 9,1 467,189 1016,417 550,229 1001,415 1002,413 1,-1 -225,-436 -503,-967 -277,-530 -502,-970 -501,-976 2,-6 192,-219 423,-473 334,-369 423,-462 440,-458 28,5 4898,1957 4908,1966 14,13 -1209,1361 -1235,1361 -4,0 -54,-41 -112,-91 -84,-73 -106,-97 -106,-118 0,-14 9,-96 20,-181 10,-85 18,-155 17,-156 -2,-2 -2550,-1098 -2626,-1130 -24,-10 -31,-11 -24,-2 6,7 394,662 863,1456 l 852,1443 -24,27 c -26,28 -496,551 -507,564 -4,4 -688,-327 -1521,-736 -833,-409 -1516,-742 -1518,-741 -2,1 362,677 807,1501 445,825 811,1504 813,1510 2,5 -222,253 -497,549 -275,297 -516,557 -535,578 l -36,39 z"
       id="path181"
       style="fill:#1d428a;fill-opacity:1" /><path
       d="m 37484,14277 c -178,-93 -417,-269 -609,-448 -467,-436 -733,-872 -816,-1337 -27,-150 -30,-395 -6,-527 54,-299 181,-548 387,-756 222,-224 482,-365 764,-414 113,-19 324,-19 446,0 246,40 372,87 878,331 651,314 765,358 922,359 88,0 101,-3 162,-33 289,-142 250,-506 -95,-869 -177,-186 -450,-368 -737,-491 -120,-52 -354,-131 -452,-152 -32,-7 -58,-16 -58,-20 0,-6 211,-169 872,-673 l 168,-127 122,63 c 373,192 640,412 949,782 306,365 472,680 551,1045 30,142 33,496 5,630 -59,276 -181,507 -375,711 -316,333 -719,493 -1127,450 -325,-35 -555,-119 -1230,-448 -431,-210 -544,-253 -681,-261 -111,-6 -171,11 -244,69 -60,47 -96,107 -111,183 -52,256 241,647 706,940 115,73 401,214 530,261 55,20 104,40 108,44 6,6 -877,687 -938,723 -6,4 -47,-12 -91,-35 z"
       id="path183"
       style="fill:#1d428a;fill-opacity:1" /><path
       d="m 34665,10503 c -314,-26 -604,-129 -891,-318 -128,-84 -186,-132 -1059,-880 -357,-306 -732,-624 -832,-708 -100,-84 -181,-155 -180,-160 1,-4 42,-54 92,-112 70,-82 95,-105 115,-105 14,0 108,9 210,20 144,15 188,16 197,7 6,-7 653,-763 1438,-1682 784,-918 1429,-1671 1433,-1672 10,-3 946,807 950,821 2,9 -941,1125 -1155,1367 -13,15 -1,28 118,128 72,61 134,111 138,111 4,0 481,-126 1060,-279 l 1053,-280 579,492 c 348,296 574,494 566,498 -6,3 -559,134 -1227,290 -668,155 -1216,284 -1218,285 -1,0 16,39 38,85 94,193 134,384 134,629 0,194 -13,284 -66,449 -109,340 -340,628 -654,817 -246,148 -556,221 -839,197 z m -43,-1243 c 191,-59 377,-275 409,-476 22,-138 -34,-302 -148,-439 -48,-57 -534,-483 -554,-484 -4,-1 -220,247 -667,765 l -61,70 252,220 c 139,121 274,235 300,253 149,102 325,136 469,91 z"
       id="path185"
       style="fill:#1d428a;fill-opacity:1" /><path
       d="m 8650,8351 c -38,-65 -70,-123 -70,-129 0,-6 28,-69 61,-141 l 62,-130 -22,-18 C 8669,7923 7938,7321 7056,6595 L 5453,5275 5322,5055 c -72,-122 -134,-228 -137,-236 -4,-11 103,-79 407,-261 227,-135 430,-256 450,-268 l 36,-21 168,218 167,218 264,156 264,157 782,-455 c 430,-250 785,-458 789,-462 4,-3 4,-143 0,-311 l -8,-305 -109,-253 c -89,-208 -106,-255 -95,-262 8,-5 211,-126 450,-269 374,-224 437,-258 447,-245 6,8 69,113 139,232 l 129,217 432,2320 c 238,1276 429,2323 425,2326 -4,4 -137,78 -297,164 -159,87 -393,220 -520,295 -518,308 -774,460 -779,460 -3,0 -37,-53 -76,-119 z m 395,-1573 c -2,-7 -79,-391 -170,-853 -92,-462 -167,-841 -169,-842 -1,-1 -128,73 -281,165 -154,92 -375,221 -492,287 -117,66 -211,123 -210,127 2,7 1317,1128 1323,1128 2,0 1,-6 -1,-12 z"
       id="path187"
       style="fill:#1d428a;fill-opacity:1" /><path
       d="m 29784,7390 c -875,-79 -1724,-568 -2181,-1255 -360,-540 -495,-1181 -382,-1809 83,-463 280,-895 575,-1261 87,-108 289,-308 397,-393 623,-491 1429,-648 2235,-437 708,186 1339,619 1710,1173 572,852 555,1965 -44,2862 -100,150 -187,255 -333,400 -384,383 -857,621 -1388,700 -156,23 -447,33 -589,20 z m 316,-1154 c 505,-108 927,-515 1115,-1078 68,-205 79,-278 80,-518 0,-202 -2,-222 -27,-323 -87,-341 -274,-603 -566,-792 -156,-100 -382,-194 -562,-232 -107,-22 -371,-25 -475,-4 -346,68 -648,273 -882,598 -80,111 -211,375 -257,518 -170,521 -81,1010 249,1373 209,230 558,412 892,467 109,18 327,13 433,-9 z"
       id="path189"
       style="fill:#1d428a;fill-opacity:1" /><path
       d="m 12015,6547 c -2,-7 -22,-70 -45,-141 l -40,-129 42,-55 c 24,-31 82,-105 130,-166 64,-82 86,-116 81,-130 -33,-107 -1243,-4218 -1243,-4224 0,-6 1150,-358 1193,-366 5,0 125,385 266,857 142,472 260,859 262,862 9,8 332,-93 339,-106 4,-8 157,-478 340,-1045 l 334,-1030 730,-217 c 401,-119 731,-215 733,-214 1,2 -188,527 -421,1168 -233,640 -426,1173 -430,1185 -6,20 0,22 86,39 243,47 514,164 699,304 384,290 592,709 592,1196 0,214 -34,382 -115,570 -166,384 -529,713 -985,894 -99,39 -1764,538 -2133,639 -102,28 -236,67 -298,86 -79,24 -114,31 -117,23 z m 1585,-1522 c 338,-99 412,-127 508,-195 170,-119 251,-290 223,-469 -42,-270 -203,-457 -436,-506 -87,-18 -157,-18 -260,0 -80,14 -642,181 -658,195 -5,5 55,226 133,491 172,591 168,579 183,574 7,-2 145,-43 307,-90 z"
       id="path191"
       style="fill:#1d428a;fill-opacity:0.996078" /><path
       d="m 25200,5600 c -648,-121 -705,-133 -1930,-377 -487,-97 -888,-179 -892,-182 -4,-4 34,-231 85,-506 70,-375 97,-501 108,-503 8,-1 252,45 543,103 292,57 532,102 535,99 10,-9 548,-2839 542,-2845 -3,-3 -244,-50 -536,-104 -291,-54 -532,-99 -533,-101 -6,-4 180,-998 188,-1007 4,-5 266,39 581,97 623,115 2837,550 2846,560 6,5 -187,990 -197,1006 -3,4 -247,-40 -542,-99 -296,-60 -538,-107 -538,-105 0,2 -123,630 -274,1396 -151,766 -276,1404 -278,1417 l -3,25 533,106 c 293,59 535,109 537,112 5,4 -168,957 -181,1001 -3,9 -8,16 -12,16 -4,-1 -266,-50 -582,-109 z"
       id="path193"
       style="fill:#1d428a;fill-opacity:1" /><path
       d="m 17056,5095 c -3,-27 -7,-94 -10,-148 l -4,-97 163,-128 c 145,-112 164,-130 165,-157 1,-16 -34,-1014 -77,-2217 -42,-1203 -75,-2189 -73,-2191 5,-4 1252,-48 1256,-44 1,1 14,398 29,882 15,484 29,890 31,903 4,21 8,22 112,21 59,-1 137,-4 174,-8 l 68,-6 581,-915 c 319,-503 586,-920 592,-926 12,-12 1394,-70 1484,-62 l 41,3 -629,915 c -346,503 -665,968 -709,1032 l -80,117 112,56 c 737,368 1071,1134 822,1884 -170,512 -640,894 -1244,1010 -169,32 -309,40 -1175,66 -451,14 -977,32 -1170,40 -192,9 -373,17 -402,18 l -52,2 z m 2014,-1065 c 216,-7 280,-12 344,-29 276,-72 436,-263 436,-516 -1,-311 -204,-523 -540,-564 -81,-10 -715,1 -726,12 -3,3 4,238 15,523 12,286 21,534 21,552 v 32 l 93,-1 c 50,0 211,-4 357,-9 z"
       id="path195"
       style="fill:#1d428a;fill-opacity:1" /><path
       style="fill:#fdb927;fill-opacity:1;stroke-width:8.50925"
       d="m 2497.4641,5588.994 c -102.5334,-7.6657 -295.5397,-40.5893 -411.7437,-70.2365 C 1662.0191,5410.6583 1286.7727,5194.4716 970.05419,4876.0004 604.07278,4507.9937 373.28849,4048.3308 292.34286,3526.1741 c -25.4008,-163.8533 -27.72557,-509.3809 -4.48813,-667.067 66.63075,-452.1473 232.89124,-840.0863 509.82024,-1189.5741 82.85216,-104.5605 272.73273,-295.7613 372.34653,-374.9355 349.4813,-277.7716 728.2431,-442.88183 1174.2761,-511.89156 119.8419,-18.54179 427.3849,-26.02382 557.3557,-13.55958 638.9145,61.27213 1199.0778,351.40704 1620.0524,839.10134 317.8094,368.1786 509.6169,811.2325 567.8468,1311.6632 16.9669,145.8135 12.059,461.2315 -9.315,598.6629 -67.2638,432.4945 -244.7893,839.8972 -511.6901,1174.2761 -74.2626,93.0377 -276.1961,294.9713 -369.2339,369.2338 -436.1649,348.1464 -976.5701,536.6014 -1523.1552,531.1687 -77.2214,-0.7675 -157.6338,-2.6838 -178.6942,-4.2584 z m 484.8986,-135.2556 c 401.3934,-52.4949 763.1021,-199.7899 1085.7765,-442.1501 94.4776,-70.9619 275.5789,-236.573 267.3223,-244.4574 -2.34,-2.2345 -180.396,-10.3817 -395.68,-18.1047 -293.8082,-10.5402 -1855.1236,-65.3719 -2365.5707,-83.0764 l -51.0555,-1.7708 -2.1278,246.2124 -2.1276,246.2125 50.4537,27.655 c 27.7495,15.2103 52.6392,27.6551 55.3104,27.6551 2.6713,0 4.8569,-112.9603 4.8569,-251.0228 0,-138.0626 2.8647,-251.0228 6.3659,-251.0228 3.5013,0 47.415,13.6781 97.5859,30.3958 108.0408,36.0007 95.6798,5.0684 108.5685,271.6825 4.9774,102.9619 11.3951,214.7084 14.2617,248.3255 l 5.2117,61.122 56.3154,20.8094 c 171.1001,63.2239 409.3206,112.2706 622.1803,128.0995 83.7786,6.23 341.9911,-3.4392 442.3524,-16.5647 z m -1697.2832,-698.3299 6.0037,-94.8625 -79.6766,-4.8426 c -165.9428,-10.0858 -288.15327,-12.8339 -288.15327,-6.4798 0,13.3237 190.52267,206.7322 266.38687,270.422 l 78.2376,65.6824 5.599,-67.5285 c 3.0794,-37.1407 8.3006,-110.2166 11.6027,-162.391 z m 3231.3634,-189.8336 23.5602,-33.31 -36.3241,-4.4335 c -19.9783,-2.4384 -632.716,-6.7447 -1361.6394,-9.5696 l -1325.3153,-5.1361 v 17.5335 c 0,16.7546 4.8198,17.5622 108.4929,18.1802 59.6711,0.3557 621.6005,11.3171 1248.732,24.3589 627.1316,13.0417 1180.4454,24.1564 1229.5863,24.6994 l 89.3471,0.9871 z M 1024.0887,3451.1828 c 145.7556,-521.454 263.4843,-949.6239 261.6194,-951.4887 -1.8648,-1.8648 -25.3018,34.2049 -52.0822,80.1548 -80.1782,137.5704 -190.7957,311.309 -270.81788,425.3535 l -75.32013,107.3434 -148.04761,497.4301 c -81.42618,273.5865 -148.04759,502.8104 -148.04759,509.3864 0,29.7637 151.22332,298.5575 161.45263,286.976 3.42834,-3.8816 125.48787,-433.7016 271.24338,-955.1555 z m -22.5866,955.6428 38.0779,-5.2192 154.2333,-592.5554 154.2333,-592.5555 4.1264,-346.7518 c 2.2695,-190.7135 1.4627,-346.7412 -1.7928,-346.728 -5.2878,0.026 -530.50453,1867.0657 -529.6059,1882.6471 0.44273,7.6763 127.25386,8.4922 180.7278,1.1628 z m 284.4734,-8.3792 c 21.3326,-5.725 23.6171,-32.1253 37.1118,-428.8825 4.5366,-133.3825 10.4992,-288.4635 13.2502,-344.6245 3.2565,-66.4829 2.1029,-99.142 -3.3064,-93.6018 -6.9045,7.0717 -231.0836,847.3144 -231.0836,866.1212 0,7.1851 157.7792,8.0318 184.028,0.9876 z m 343.5454,-228.9152 v -216.9858 h -55.3101 -55.3102 v 216.9858 216.9858 h 55.3102 55.3101 z m 365.8976,198.1652 c 0,-5.6712 -46.9072,-188.5136 -104.2383,-406.3166 -93.4886,-355.167 -104.5116,-391.1788 -106.8887,-349.2043 -1.4577,25.7405 3.329,198.0527 10.6372,382.9161 7.3082,184.8634 13.2873,346.6455 13.2869,359.5157 l -5e-4,23.4004 h 93.6017 c 67.6338,0 93.6017,-2.8606 93.6017,-10.3113 z m 280.8052,-3.4776 c 0,-15.6143 -513.8038,-1846.7732 -520.0909,-1853.5654 -9.3367,-10.087 -9.4205,-16.8343 5.1185,412.2731 l 11.9649,353.1337 140.9802,536.0826 c 77.539,294.8454 142.731,540.869 144.871,546.7191 2.83,7.7364 32.9654,10.6366 110.5236,10.6366 58.648,0 106.6327,-2.3759 106.6327,-5.2797 z m 302.1307,-13.1849 c 4.6904,-4.7107 -165.6791,-590.5342 -411.6109,-1415.3436 L 2118.537,2774.0146 1966.592,2622.596 c -83.5698,-83.2803 -152.9837,-150.2906 -154.2531,-148.9119 -1.2694,1.3788 113.4251,416.0563 254.8768,921.5056 141.4517,505.4493 259.8921,929.8158 263.201,943.0366 l 6.0159,24.0381 118.1228,-2.765 c 64.9675,-1.5206 120.6771,-5.3301 123.799,-8.4655 z m 289.6118,-8.8312 c 2.8995,-2.8995 -83.4941,-289.9176 -191.9859,-637.8181 l -197.2578,-632.5463 -35.4361,-27.1182 c -19.4899,-14.915 -79.4115,-63.7005 -133.1592,-108.4122 -53.7475,-44.7116 -98.7312,-78.3056 -99.9634,-74.6532 -1.7562,5.2054 419.3367,1434.249 436.4653,1481.2118 3.3867,9.2859 25.8137,10.9418 110.1589,8.1338 58.2485,-1.9391 108.2787,-5.8981 111.1782,-8.7976 z m 299.7411,-10.4266 c 2.2695,-2.2696 -71.5958,-228.4742 -164.1452,-502.6769 l -168.2715,-498.5505 -131.6349,-93.5959 c -72.3992,-51.4777 -133.2623,-91.9685 -135.2513,-89.9794 -3.4296,3.4297 360.1121,1175.7815 369.594,1191.8687 4.4825,7.6053 221.72,0.9228 229.7089,-7.066 z m 289.493,-8.7311 c 1.3452,-1.3215 -1.4387,-11.5132 -6.1866,-22.6481 -4.7479,-11.1351 -64.3742,-179.0991 -132.503,-373.2535 -68.1288,-194.1545 -128.526,-359.7697 -134.216,-368.034 -13.3018,-19.3199 -256.3583,-170.3031 -259.4333,-161.1563 -1.9025,5.6591 274.405,837.3478 304.3821,916.1936 l 8.9705,23.5942 108.2702,-6.1466 c 59.5486,-3.3806 109.3709,-7.2277 110.7161,-8.5493 z m 305.1819,-8.7859 c 6.2022,-1.9942 -29.1966,-104.4114 -96.3504,-278.7653 l -106.1546,-275.613 -141.62,-77.6866 c -77.8911,-42.7277 -143.2031,-76.1037 -145.1379,-74.1688 -1.9348,1.9347 52.9611,163.6238 121.9907,359.309 l 125.5086,355.7914 115.9797,-2.8571 c 63.7889,-1.5715 120.3916,-4.2758 125.7839,-6.0096 z m 317.8019,-8.1262 c 0,-3.2976 -25.0677,-63.4109 -101.3195,-242.9673 l -52.3971,-123.3841 -137.9613,-66.0634 c -75.8786,-36.3349 -139.1342,-62.5448 -140.5676,-58.2443 -1.4336,4.3006 39.8541,118.2706 91.7503,253.2669 l 94.3568,245.4477 123.0691,-2.5645 c 67.6881,-1.4105 123.0693,-3.8814 123.0693,-5.491 z m 303.1006,-15.6582 c 2.1958,-2.1958 -13.5074,-43.7085 -34.8959,-92.2503 l -38.8883,-88.2579 -145.2374,-62.3134 c -79.8806,-34.2725 -146.4837,-61.0672 -148.0069,-59.544 -1.5232,1.5232 26.5968,73.0677 62.4889,158.9878 l 65.2583,156.2183 117.6445,-4.4241 c 64.7044,-2.4332 119.441,-6.2206 121.6368,-8.4164 z m 317.5042,-11.1712 c 8.5628,-8.5628 -19.2384,-22.0997 -144.087,-70.1578 -72.5413,-27.9235 -138.5943,-53.4561 -146.7845,-56.7392 -20.9725,-8.407 -18.9377,1.8659 15.2132,76.8051 l 30.1043,66.0596 120.9318,-6.1386 c 66.5124,-3.3763 122.5924,-7.7994 124.6222,-9.8291 z m 99.1807,-205.5013 c 11.9969,-26.9105 40.3741,-104.4511 63.0604,-172.3123 C 5066.427,3293.0707 4999.2761,2598.1855 4684.0348,2049.225 4352.026,1471.0658 3816.5052,1075.2701 3172.9937,932.43644 3014.8815,897.3419 2893.9778,885.74422 2684.6675,885.59377 c -207.8017,-0.14937 -285.9164,6.96073 -459.5846,41.83202 -423.9927,85.13461 -815.0257,290.94351 -1128.7287,594.07371 -133.22807,128.7379 -221.17771,233.1069 -317.13783,376.3445 -246.64121,368.1559 -375.30045,768.8849 -389.43954,1212.9694 -4.39175,137.9374 7.14384,369.2912 19.00474,381.1521 12.27468,12.2747 177.96638,-143.1569 284.58288,-266.9608 153.04801,-177.7204 391.58085,-518.5338 572.46505,-817.9327 l 82.8862,-137.193 v -94.203 -94.2029 l 25.5277,-15.0796 c 17.5895,-10.3904 25.5683,-21.7858 25.6581,-36.6454 0.1965,-32.5665 7.985,-38.8671 65.8163,-53.2445 l 53.1828,-13.2217 v 79.8876 79.8877 h 51.0555 51.0555 v -70.9104 c 0,-39.0007 2.0828,-72.9932 4.6285,-75.5388 2.5457,-2.5458 26.899,0.9814 54.1183,7.838 l 49.4899,12.4665 5.9991,133.2737 c 4.2362,94.1088 9.6636,138.9281 18.4692,152.5151 20.824,32.132 230.9968,245.5897 339.5582,344.8655 267.9716,245.0509 658.0766,528.8223 1016.8551,739.6837 384.7569,226.1295 847.4146,448.375 1272.1325,611.0902 78.2318,29.9718 386.4034,142.6925 393.66,143.99 1.229,0.2196 12.0502,-21.6181 24.0472,-48.5285 z M 672.10396,3635.5339 c 59.33528,-200.0968 106.58584,-367.702 105.00124,-372.4557 -1.58459,-4.7538 -26.73279,19.3742 -55.88488,53.6179 -52.64425,61.8389 -197.6373,206.6162 -260.51563,260.1281 l -32.83165,27.9411 18.97957,82.4156 c 21.54015,93.5346 68.81386,253.481 89.67631,303.4119 10.36541,24.8078 15.75003,30.2618 20.83526,21.1035 3.77161,-6.7925 55.40451,-176.0657 114.73978,-376.1624 z m 957.41694,48.9702 v -140.4026 h -55.3101 -55.3102 v 140.4026 140.4026 h 55.3102 55.3101 z m 0,-395.68 v -136.148 h -55.3101 -55.3102 v 136.148 136.1479 h 55.3102 55.3101 z m 0,-336.1153 v -72.3286 h -55.3101 -55.3102 v 72.3286 72.3286 h 55.3102 55.3101 z m 0,-268.0413 v -76.5832 h -55.3101 -55.3102 v 76.5832 76.5833 h 55.3102 55.3101 z m 0,-251.0228 v -46.8008 h -55.3101 -55.3102 v 46.8008 46.8009 h 55.3102 55.3101 z"
       id="path14033"
       transform="matrix(7.5,0,0,-7.5,0,49460)" /><path
       style="fill:#1d428a;fill-opacity:1;stroke-width:8.50925"
       d="m 3059.1839,4563.4718 c -676.2122,-13.7432 -1231.1215,-26.6323 -1233.1318,-28.6426 -2.0102,-2.0103 -1.4259,-5.8841 1.2986,-8.6086 2.7244,-2.7244 610.3255,-1.7671 1350.2246,2.1273 l 1345.2711,7.0809 -19.2366,27.508 -19.2365,27.508 -97.8563,-0.9927 c -53.821,-0.5459 -651.1209,-12.2371 -1327.3331,-25.9803 z"
       id="path14104"
       transform="matrix(7.5,0,0,-7.5,0,49460)" /><path
       style="display:none;fill:#1d428a;fill-opacity:1;stroke-width:8.50925"
       d="m -1982.6546,2371.2146 c -353.5597,-122.8454 -657.6367,-290.9548 -840.2882,-464.5543 -36.3293,-34.5289 -40.4189,-42.2217 -40.4189,-76.0294 0,-26.4489 -3.9952,-39.1467 -13.4598,-42.7786 -23.3371,-8.9552 -29.0865,-5.7712 -29.0865,16.1081 0,13.2366 -4.8219,21.2731 -12.7638,21.2731 -7.942,0 -12.7639,-8.0365 -12.7639,-21.2731 0,-16.465 -4.3807,-21.2731 -19.382,-21.2731 -25.8585,0 -48.692,28.1967 -48.692,60.1289 0,30.1114 -38.3789,89.588 -136.6179,211.7195 -65.2082,81.0674 -154.6516,170.6325 -170.4007,170.6325 -12.7562,0 -8.9086,-140.6231 5.6581,-206.7968 18.2254,-82.7943 77.3559,-202.3928 133.5644,-270.1497 109.072,-131.4817 275.9212,-227.0223 461.3652,-264.1852 90.0334,-18.0426 264.2171,-14.3386 353.1337,7.5095 284.8558,69.9931 499.9354,269.8903 558.3476,518.9341 21.2264,90.5007 12.934,233.2011 -18.8992,325.2257 -14.6432,42.3311 -30.2035,73.2097 -37.579,74.5734 -6.9232,1.28 -66.1959,-16.299 -131.7171,-39.0646 z"
       id="path14158"
       transform="matrix(7.5,0,0,-7.5,0,49460)" /></g></svg>
