<?xml version="1.0" encoding="UTF-8"?>
<svg width="572px" height="516px" viewBox="0 0 572 516" version="1.1" xmlns="http://www.w3.org/2000/svg" xmlns:xlink="http://www.w3.org/1999/xlink">
    <!-- Generator: Sketch 64 (93537) - https://sketch.com -->
    <title>Group 4</title>
    <desc>Created with Sketch.</desc>
    <defs>
        <polygon id="path-1" points="0 0.805565132 308.660795 0.805565132 308.660795 150.999901 0 150.999901"></polygon>
    </defs>
    <g id="Detail" stroke="none" stroke-width="1" fill="none" fill-rule="evenodd">
        <g id="Desktop-HD" transform="translate(-802.000000, -950.000000)">
            <g id="Group-4" transform="translate(802.000000, 950.000000)">
                <rect id="Rectangle-Copy-10" fill="#FFFFFF" x="0" y="0" width="572" height="516"></rect>
                <g id="Group-56" transform="translate(132.000000, 64.000000)">
                    <path d="M251.452094,16.8757741 C251.452094,16.8757741 280.822696,42.6334013 285.971893,76.2142677 C285.971893,76.2142677 278.533832,65.147586 267.853794,58.8516085 C267.853794,58.8516085 253.740958,20.6919398 211.974913,6 C211.974913,6 238.675008,22.4081206 251.452094,49.5021019 C251.452094,49.5021019 232.571703,43.0152167 219.985439,43.5879399 C219.985439,43.5879399 236.958609,47.5950133 257.746221,62.858682 C257.746221,62.858682 282.348273,131.355775 223.0356,182.490208 C223.0356,182.490208 237.911722,124.296166 186.228926,103.308249 C186.228926,103.308249 205.871609,117.427466 208.732937,135.934577 C208.732937,135.934577 199.769298,125.822434 186.038104,126.586065 C186.038104,126.586065 230.855304,146.810351 195.382392,189.931632 C195.382392,189.931632 177.836758,172.567978 170.207875,143.948724 C170.207875,143.948724 168.300654,174.09524 186.038104,197.944784 C186.038104,197.944784 154.760283,218.932702 122.91099,197.944784 C122.91099,197.944784 139.31269,176.957861 138.168755,143.948724 C138.168755,143.948724 130.349051,174.477055 113.374887,189.740724 C113.374887,189.740724 75.9947544,152.152784 122.721163,126.395157 C122.721163,126.395157 107.845041,126.96788 99.8345152,135.744663 C99.8345152,135.744663 101.550914,118.000189 122.721163,102.926434 C122.721163,102.926434 71.7281061,119.526456 86.4491857,182.681116 C86.4491857,182.681116 27.0778749,140.991643 51.3936955,62.5723204 C51.3936955,62.5723204 70.6557293,48.4531038 88.2013639,43.6833937 C88.2013639,43.6833937 73.230825,42.824309 57.2107681,49.5021019 C57.2107681,49.5021019 69.320973,23.6490208 96.687949,6 C96.687949,6 59.8325753,16.3507778 41.0953005,57.9935181 C41.0953005,57.9935181 26.7916427,68.4397498 22.9294961,75.3084504 C22.9294961,75.3084504 27.5062293,42.824309 57.1143635,17.0666818 C57.1143635,17.0666818 9.34141886,38.2455067 7.05255534,94.0541962 C4.76369183,149.86388 77.9983796,201.093767 77.9983796,201.093767 L52.8954205,190.718132 C52.8954205,190.718132 47.6736711,188.142866 48.1040132,192.651072 C48.5333615,197.158284 51.1790214,225.2774 63.1938156,229.35507 C75.2086098,233.433734 101.170265,233.576914 101.170265,233.576914 L98.0236992,246.122137 L117.096899,276.419788 L148.562561,322 L160.335847,322 L191.546086,276.516236 L210.979064,245.272995 L207.401162,233.859299 C207.401162,233.859299 237.85706,233.181179 245.398483,229.119418 C252.940899,225.056663 259.320497,210.159895 260.094716,194.296657 C260.094716,194.296657 261.54476,187.428951 254.099742,191.008471 C246.655718,194.586996 230.896053,200.58468 230.896053,200.58468 C230.896053,200.58468 289.595513,156.732581 298.177509,120.480001 C306.759505,84.2284146 297.033574,39.7717742 251.452094,16.8757741" id="Fill-1" fill="#174F35"></path>
                    <path d="M255.565319,54.1597491 C257.190613,55.2443563 258.846704,56.3947576 260.527632,57.6169344 C259.740815,56.0009894 258.649006,53.9105287 257.223397,51.5040566 C256.971059,52.3274808 256.541886,53.1020578 255.945812,53.7699684 C255.823617,53.9065412 255.697448,54.0361358 255.565319,54.1597491 L255.565319,54.1597491 Z M51.4498278,51.4651782 C50.2835104,53.4579445 49.1589181,55.5464114 48.0909528,57.7285852 C48.7327254,57.2640384 50.5467762,55.9680923 53.1973171,54.2305277 C53.0870435,54.1308396 52.9807437,54.0271639 52.8774243,53.9185038 C52.1998872,53.209721 51.7210413,52.3653623 51.4498278,51.4651782 L51.4498278,51.4651782 Z M151.761077,316.81711 L157.149583,316.81711 L186.460512,273.973134 L204.341728,245.138334 L201.59979,236.361789 C201.028552,234.535502 201.347452,232.545726 202.459129,230.989594 C203.5718,229.433462 205.348099,228.493402 207.256529,228.450537 C221.199685,228.137516 238.636827,226.509608 242.49541,224.425129 C247.031531,221.974794 252.251149,211.296198 253.68868,198.459354 C245.643672,202.052116 233.608945,206.652724 233.034728,206.872038 C230.204371,207.951661 227.015377,206.77534 225.556983,204.11267 C224.099583,201.450996 224.818846,198.117424 227.243872,196.299112 C227.812129,195.872447 284.254344,153.22685 292.223849,119.464464 C295.751611,104.516225 296.081439,87.428678 291.131047,71.1894771 C291.437031,72.6309679 291.704271,74.0904025 291.929786,75.5637935 C292.360946,78.3829746 290.784331,81.1253958 288.13677,82.1621526 C285.490203,83.1989095 282.478044,82.2528689 280.892488,79.886272 C280.830894,79.7945589 274.042609,69.8297306 264.737899,64.3279412 C264.619677,64.2581595 264.504437,64.1843903 264.391183,64.1066335 C266.169469,70.2962712 269.675376,85.2494949 268.66205,104.16931 C267.44606,126.863319 259.228191,159.768387 226.982593,187.652161 C224.973825,189.388729 222.072933,189.616018 219.821761,188.214402 C217.56761,186.812787 216.481762,184.106253 217.138436,181.528318 C217.485153,180.148634 222.607412,158.797424 214.352786,138.639482 C213.79347,140.030131 212.726498,141.203461 211.304862,141.875359 C211.134981,141.95511 210.963113,142.026885 210.789259,142.089689 C212.234737,144.796222 213.414963,147.781882 214.174957,151.052651 C217.314278,164.552421 212.566552,179.125833 200.063906,194.369149 C198.980046,195.691014 197.39151,196.494501 195.687732,196.581229 C193.990909,196.668955 192.321903,196.032945 191.108893,194.828712 C191.013521,194.735005 190.65389,194.373137 190.079673,193.75507 C190.349893,194.137873 190.626073,194.518681 190.907222,194.897496 C191.898691,196.234315 192.300047,197.921038 192.018899,199.564896 C191.737751,201.207757 190.797941,202.663204 189.418031,203.591301 C188.004343,204.542326 154.402677,226.625246 119.596943,203.619213 C118.180274,202.684138 117.219602,201.196791 116.945408,199.518043 C116.671214,197.839294 117.109329,196.121667 118.153451,194.781858 C118.177294,194.750955 118.623356,194.159804 119.343611,193.052269 C118.729655,193.663357 118.100798,194.260489 117.461012,194.836687 C115.056848,197.005901 111.381061,196.902225 109.100085,194.603416 C108.338105,193.834821 90.4678162,175.528087 93.5375956,154.002424 C94.1485711,149.723808 95.5185471,145.665503 97.6415627,141.837478 C97.5620863,141.806574 97.4816163,141.77268 97.4031333,141.737789 C95.9169229,141.074863 94.7972979,139.863652 94.2250672,138.415183 C89.8329978,149.064869 88.0725936,163.226569 92.4000883,181.846323 C92.9713256,184.30563 91.9709153,186.863628 89.885651,188.277206 C87.8003866,189.690784 85.0614281,189.665862 83.0010002,188.215399 C82.3512799,187.756834 66.936815,176.757242 54.6110051,155.574506 C43.3958792,136.2998 32.7519905,104.667751 45.0917088,62.8535534 C44.9754744,62.9532415 44.8562597,63.0479453 44.7330711,63.1386615 C39.6127984,66.8929175 30.6200337,74.4004327 28.2854119,78.5654039 C26.8548351,81.1174207 23.8158529,82.2887566 21.0490777,81.3486973 C18.2842893,80.4106317 16.5765383,77.6293321 16.9838553,74.7294036 C17.0335281,74.3785013 17.3772639,72.0677298 18.3299883,68.3782711 C15.2900126,76.5536969 13.5693467,85.3162859 13.188853,94.6231724 C11.0658373,146.563693 80.8173837,196.204408 81.521744,196.698861 C84.057044,198.481286 84.8508154,201.892614 83.3636116,204.616095 C81.8754144,207.340572 78.5840943,208.505927 75.7239342,207.319638 L54.9130158,198.692625 C57.1691546,214.583914 61.6426874,223.048435 65.1932995,224.256656 C74.2655407,227.345992 94.2886484,228.12655 101.23688,228.166425 C103.101597,228.177391 104.857034,229.046672 105.999509,230.525047 C107.141983,232.002426 107.544333,233.92541 107.090324,235.739735 L104.57688,245.791292 L122.19185,273.855502 L151.761077,316.81711 Z M160.344538,329 L148.576057,329 C146.582191,329 144.714493,328.017075 143.58096,326.370226 L112.129133,280.671181 C112.080454,280.601399 112.033761,280.529624 111.988062,280.456852 L92.9216528,250.080873 C92.0384703,248.673276 91.7672568,246.964621 92.1706,245.351667 L93.4720275,240.144954 C84.5229749,239.773118 69.9142029,238.728386 61.2919974,235.792569 C48.3194477,231.376384 43.7058375,210.542556 42.1192881,193.841799 C41.6632918,189.035833 44.2899897,186.669236 45.4404119,185.872728 C46.4040643,185.205814 47.4173895,184.819024 48.4187933,184.625629 C44.7946654,181.127571 41.0155584,177.275621 37.2384383,173.117628 C12.215266,145.566812 0.0424483908,118.988952 1.05875398,94.1237347 C2.32044323,63.2612779 16.7891379,42.4882596 28.7046504,30.497768 C41.5828218,17.5373106 54.1768648,11.8540888 54.7073704,11.6188247 C57.4522896,10.3966479 60.6760547,11.3755856 62.2884339,13.9186305 C63.2103612,15.3740776 63.4468037,17.0907077 63.055382,18.6647837 C79.03413,4.91778674 94.0820095,0.509576403 95.0824198,0.227458917 C97.975364,-0.58599645 101.025274,0.84253485 102.258153,3.59093736 C103.491032,6.33933987 102.536321,9.57920499 100.011949,11.2111001 C86.4373648,19.9916331 76.814749,30.9453678 70.7536733,39.3341263 C80.7587697,37.3832291 88.1361748,37.7650347 88.5872038,37.7909536 C91.558631,37.9624173 93.9677621,40.2692012 94.2767269,43.2399083 C94.5856918,46.2096186 92.7030925,48.966993 89.8310109,49.7505419 C76.4163731,53.4081004 61.506584,63.2243933 56.6525574,66.5818905 C47.8078178,96.7335707 50.6441349,124.597408 65.0949474,149.431721 C69.2883256,156.639175 73.8790862,162.52277 77.9641777,167.051603 C76.9468787,150.366796 80.2242904,131.33533 94.6005936,115.415131 C106.452525,102.289192 120.284414,97.6666518 120.867573,97.4762474 C123.717799,96.54516 126.818375,97.8430999 128.166495,100.528699 C129.515608,103.215295 128.707929,106.48706 126.26502,108.230606 C119.612838,112.981743 115.112482,118.009017 112.075486,122.496978 C117.66467,120.928883 122.152112,120.72552 122.511743,120.711563 C125.318256,120.601906 127.840641,122.447134 128.593681,125.166627 C129.346721,127.887117 128.138678,130.770098 125.674907,132.132835 C113.606402,138.805961 106.836992,146.744129 105.555434,155.728026 C104.126844,165.747682 109.693179,175.542044 113.762375,181.167446 C126.15872,166.399643 132.240658,143.141399 132.30722,142.881213 C133.06026,139.949384 135.857832,138.016431 138.845155,138.344405 C141.844399,138.672379 144.148223,141.160595 144.25353,144.186131 C145.115849,169.15303 136.657564,187.650167 131.503514,196.500482 C150.581845,206.229049 168.592211,200.457105 177.281971,196.392819 C162.576834,172.235388 164.077946,145.238838 164.155436,144.012673 C164.343199,141.033991 166.654971,138.629513 169.61547,138.335433 C172.57597,138.042349 175.311948,139.943403 176.078896,142.827381 C180.826623,160.691499 189.651493,173.934074 195.05192,180.820532 C201.750795,170.967354 204.210592,161.932616 202.369718,153.89476 C199.158868,139.879602 183.678835,132.605357 183.522862,132.533582 C180.987562,131.366234 179.561953,128.609856 180.08153,125.85946 C180.601108,123.108067 182.913874,121.063462 185.699525,120.907949 C189.358424,120.703588 192.731207,121.129257 195.767209,121.919784 C191.156579,115.570645 185.526663,110.647047 182.685379,108.597458 C180.18783,106.798087 179.426843,103.40869 180.91206,100.708138 C182.39827,98.0075853 185.662767,96.8472152 188.510012,98.0075853 C211.708205,107.456029 226.051725,125.530489 229.990778,150.275083 C230.917673,156.102853 231.159082,161.636543 231.051789,166.491356 C267.120206,124.957282 255.368614,76.468962 252.537264,66.8560329 C233.716238,53.3961378 218.72896,49.74157 218.575967,49.7046854 C215.628383,49.0068683 213.644451,46.2355375 213.926593,43.2100019 C214.207741,40.1844663 216.669525,37.829832 219.694599,37.6922624 C225.577846,37.4241012 232.538,38.5097052 238.602056,39.8485172 C225.997085,22.0830906 208.987129,11.4064889 208.779497,11.2778912 C206.141871,9.6440023 205.152389,6.27553945 206.488587,3.46832092 C207.824786,0.661102403 211.051531,-0.68668149 213.976266,0.346087825 C226.888215,4.90083975 237.301622,11.5261147 245.582078,18.6518242 C245.113167,16.9800538 245.360537,15.1278479 246.388764,13.5936471 C248.093535,11.0515991 251.417639,10.1763371 254.147657,11.5520336 C276.420942,22.7739296 292.536787,40.1286409 300.751676,61.7390398 C307.742626,80.130508 308.909937,101.628259 304.038029,122.271683 C298.864109,144.187127 277.412412,168.033532 259.673259,184.672482 C261.051183,184.979522 262.133057,185.581638 262.955638,186.229611 C266.011509,188.63708 266.594668,192.53389 266.105888,195.579363 C265.12634,213.749524 257.812516,229.984737 248.250501,235.150578 C242.076172,238.48714 225.841112,239.814987 215.562815,240.331371 L216.758936,244.160393 C217.288448,245.854095 217.05598,247.694339 216.121137,249.201623 L196.69609,280.525636 C196.647411,280.602396 196.598732,280.679156 196.546078,280.753922 L165.348576,326.35627 C164.21703,328.011093 162.345359,329 160.344538,329 L160.344538,329 Z" id="Fill-3" fill="#E0D2AB"></path>
                    <path d="M251.452094,16.8757741 C251.452094,16.8757741 280.822696,42.6334013 285.971893,76.2142677 C285.971893,76.2142677 278.533832,65.147586 267.853794,58.8516085 C267.853794,58.8516085 253.740958,20.6919398 211.974913,6 C211.974913,6 238.675008,22.4081206 251.452094,49.5021019 C251.452094,49.5021019 232.571703,43.0152167 219.985439,43.5879399 C219.985439,43.5879399 236.958609,47.5950133 257.746221,62.858682 C257.746221,62.858682 282.348273,131.355775 223.0356,182.490208 C223.0356,182.490208 237.911722,124.296166 186.228926,103.308249 C186.228926,103.308249 205.871609,117.427466 208.732937,135.934577 C208.732937,135.934577 199.769298,125.822434 186.038104,126.586065 C186.038104,126.586065 230.855304,146.810351 195.382392,189.931632 C195.382392,189.931632 177.836758,172.567978 170.207875,143.948724 C170.207875,143.948724 168.300654,174.09524 186.038104,197.944784 C186.038104,197.944784 154.760283,218.932702 122.91099,197.944784 C122.91099,197.944784 139.31269,176.957861 138.168755,143.948724 C138.168755,143.948724 130.349051,174.477055 113.374887,189.740724 C113.374887,189.740724 75.9947544,152.152784 122.721163,126.395157 C122.721163,126.395157 107.845041,126.96788 99.8345152,135.744663 C99.8345152,135.744663 101.550914,118.000189 122.721163,102.926434 C122.721163,102.926434 71.7281061,119.526456 86.4491857,182.681116 C86.4491857,182.681116 27.0778749,140.991643 51.3936955,62.5723204 C51.3936955,62.5723204 70.6557293,48.4531038 88.2013639,43.6833937 C88.2013639,43.6833937 73.230825,42.824309 57.2107681,49.5021019 C57.2107681,49.5021019 69.320973,23.6490208 96.687949,6 C96.687949,6 59.8325753,16.3507778 41.0953005,57.9935181 C41.0953005,57.9935181 26.7916427,68.4397498 22.9294961,75.3084504 C22.9294961,75.3084504 27.5062293,42.824309 57.1143635,17.0666818 C57.1143635,17.0666818 9.34141886,38.2455067 7.05255534,94.0541962 C4.76369183,149.86388 77.9983796,201.093767 77.9983796,201.093767 L52.8954205,190.718132 C52.8954205,190.718132 47.6736711,188.142866 48.1040132,192.651072 C48.5333615,197.158284 51.1790214,225.2774 63.1938156,229.35507 C75.2086098,233.433734 101.170265,233.576914 101.170265,233.576914 L98.0236992,246.122137 L117.096899,276.419788 L148.562561,322 L160.335847,322 L191.546086,276.516236 L210.979064,245.272995 L207.401162,233.859299 C207.401162,233.859299 237.85706,233.181179 245.398483,229.119418 C252.940899,225.056663 259.320497,210.159895 260.094716,194.296657 C260.094716,194.296657 261.54476,187.428951 254.099742,191.008471 C246.655718,194.586996 230.896053,200.58468 230.896053,200.58468 C230.896053,200.58468 289.595513,156.732581 298.177509,120.480001 C306.759505,84.2284146 297.033574,39.7717742 251.452094,16.8757741" id="Fill-5" fill="#004814"></path>
                    <polygon id="Fill-7" fill="#FFFFFF" points="142 302 166 302 160.193402 310 147.516117 310"></polygon>
                    <path d="M137.125909,295 L146.208394,295 L137.603201,283.030693 L139.420694,275.525743 C139.420694,275.525743 144.396879,281.985149 153.572032,281.985149 C162.747185,281.985149 168.674964,276.09505 168.674964,276.09505 L169.821858,283.125743 L162.078579,295 L170.491461,295 L179,283.885149 L175.462664,268.970297 C175.462664,268.970297 167.145439,263.081188 164.850655,254.531683 C162.55587,245.982178 160.405568,239 160.405568,239 L153.857012,242.134653 L147.355288,239 L142.766715,254.674257 C142.766715,254.674257 140.184958,263.651485 132.298192,268.923762 L129,284.027723 L137.125909,295 Z" id="Fill-9" fill="#FFFFFF"></path>
                    <path d="M59,201 C59,201 76.4296797,217.42915 94,225 L76.5,224.142361 C76.5,224.142361 64.7623619,225.28588 61.2492745,211.428654 L59,201 Z" id="Fill-11" fill="#FFFFFF"></path>
                    <path d="M249,201 C249,201 231.57032,217.42915 214,225 L231.500977,224.142361 C231.500977,224.142361 243.237638,225.28588 246.750726,211.428654 L249,201 Z" id="Fill-13" fill="#FFFFFF"></path>
                    <path d="M121.753224,227.403711 C121.888874,227.469839 134.293493,233.322727 134.293493,233.322727 C134.293493,233.322727 137.47584,234.648263 135.148984,236.684437 C132.821137,238.72061 130.968564,240.046146 128.117918,239.99877 C125.268262,239.951395 118.760986,236.731813 118.143131,232.517338 C117.526267,228.303851 118.935252,226.020929 121.753224,227.403711" id="Fill-15" fill="#FFFFFF"></path>
                    <path d="M185.246776,227.403711 C185.112116,227.469839 172.706507,233.322727 172.706507,233.322727 C172.706507,233.322727 169.52416,234.648263 171.851016,236.684437 C174.178863,238.72061 176.031436,240.046146 178.882082,239.99877 C181.731738,239.951395 188.239014,236.731813 188.856869,232.517338 C189.473733,228.303851 188.064748,226.020929 185.246776,227.403711" id="Fill-17" fill="#FFFFFF"></path>
                    <path d="M153.828087,381 C135.457274,381 117.537607,377.884978 100.567931,371.74006 C84.1169754,365.785191 68.9608305,357.138951 55.5208318,346.043851 C28.4440788,323.693295 9.961969,292.385691 3.47897075,257.888827 L3,255.338013 L57.7785529,238.631517 L58.2545425,241.995978 C61.4503307,264.548461 72.734961,285.27667 90.0295811,300.36379 C107.487171,315.591467 129.896443,323.978369 153.128512,323.978369 C176.47287,323.978369 198.963627,315.520198 216.456991,300.162853 C233.795334,284.941115 245.029285,264.05849 248.089928,241.362482 L248.543062,238 L305,254.713424 L304.498174,257.296903 C297.833326,291.671027 279.213089,323.023175 252.06777,345.577637 C238.568148,356.794487 223.398092,365.543671 206.980922,371.581686 C189.987398,377.831527 172.105492,381 153.828087,381" id="Fill-19" fill="#004814"></path>
                    <g id="Group-23" transform="translate(0.000000, 234.000000)">
                        <mask id="mask-2" fill="white">
                            <use xlink:href="#path-1"></use>
                        </mask>
                        <g id="Clip-22"></g>
                        <path d="M246.41667,0.805565132 L245.509541,7.55586118 C242.543738,29.6376243 231.652233,49.958052 214.84303,64.7709533 C197.883799,79.7139928 176.081911,87.9444862 153.450394,87.9444862 C130.927175,87.9444862 109.203779,79.7845257 92.28131,64.9656638 C75.5138373,50.2848875 64.5736476,30.1144664 61.475699,8.17277566 L60.5218727,1.4175125 L53.9990913,3.41428882 L4.98036463,18.4209072 L-0.000397427653,19.9458086 L0.958396785,25.0659007 C4.30076334,42.9127099 10.6655672,59.8316638 19.8789338,75.3518809 C28.8906058,90.532348 40.3703035,103.955453 53.9971042,115.24767 C67.6944482,126.596513 83.1384868,135.439947 99.9019852,141.531605 C117.190088,147.813999 135.440959,150.999901 154.149866,150.999901 C172.769352,150.999901 190.989423,147.758368 208.303358,141.366697 C225.032082,135.190598 240.488043,126.243848 254.241027,114.772815 C267.887699,103.39119 279.415088,89.8995388 288.504259,74.6713875 C297.786181,59.1203743 304.230471,42.2361901 307.659278,24.488723 L308.660795,19.3020717 L303.596574,17.7970388 L252.946406,2.74571645 L246.41667,0.805565132 Z M251.285159,8.33172303 L301.93632,23.3830454 C288.532078,92.7695322 227.461358,145.172493 154.149866,145.172493 C80.5403035,145.172493 19.7567248,93.7997099 6.6873164,23.9930059 L55.7050495,8.9863875 C62.4702617,56.9080257 103.654696,93.7718941 153.450394,93.7718941 C203.472625,93.7718941 244.805101,56.5722493 251.285159,8.33172303 L251.285159,8.33172303 Z" id="Fill-21" fill="#E0D2AB" mask="url(#mask-2)"></path>
                    </g>
                    <polygon id="Fill-24" fill="#FFFFFF" points="15 263.799705 48.0565051 252 50.2542091 257.899342 43.0894344 263.467204 52.4529124 263.799705 54 268.867794 21.187351 281 19.2335033 275.682024 39.181739 268.286428 30.6327807 268.037562 36.7391795 262.054584 16.7909438 268.785179"></polygon>
                    <polygon id="Fill-26" fill="#FFFFFF" points="26 290.413441 28.5932355 295 59 278.988525 56.4430542 274"></polygon>
                    <polygon id="Fill-28" fill="#FFFFFF" points="33 304.19004 61.8084385 284 65 288.199195 41.1019652 305.48271 47.5674641 314.527436 42.9845545 318"></polygon>
                    <polygon id="Fill-30" fill="#FFFFFF" points="71.2480879 297 74.9565973 300.35677 66.5718832 311.145126 77.9388405 303.633103 79.0668289 304.671916 72.1346473 316.019407 82.6140557 307.948249 86 311.544368 59.7208376 334 55.6096165 330.164532 61.3326737 321.453803 52.6273734 327.127548 49 323.53143"></polygon>
                    <path d="M85.8978318,327.807248 L90.3938896,320.687175 L95.6931669,324.247708 L91.1971091,331.28634 L85.8978318,327.807248 Z M88.4661629,313 L70,342.452608 L74.3363995,345.203703 L82.4454665,332.5 L88.1458607,336.302867 L80.1166229,349.00657 L84.6934954,352 L103,322.305058 L88.4661629,313 Z" id="Fill-32" fill="#FFFFFF"></path>
                    <polygon id="Fill-34" fill="#FFFFFF" points="106.474594 325 94 357.47313 110.605945 364 123 331.52687 117.653604 329.512135 107.203422 356.908372 100.966125 354.491086 111.658918 326.974183"></polygon>
                    <polygon id="Fill-36" fill="#FFFFFF" points="127.074837 332 121 366.496114 126.41788 367.465936 128.716222 353.570111 132 368.273129 137.910598 369 133.641385 347.268252 143 334.5852 137.006778 333.777015 131.261427 341.775568 132.410094 332.726871"></polygon>
                    <polygon id="Fill-38" fill="#FFFFFF" points="146 336 146.490587 370 163 370 163 364.306643 151.721511 364.306643 151.721511 354.581542 162.673945 354.581542 162.673945 349.520996 151.312186 349.520996 151.312186 341.060546 162.591679 341.060546 162.591679 336"></polygon>
                    <polygon id="Fill-40" fill="#FFFFFF" points="167 335.088852 174.020636 369 190 365.925974 188.904385 360.232602 177.986801 362.332033 176.114961 352.605856 186.715133 350.566719 185.741144 345.506932 174.745443 347.62119 173.116853 339.161195 184.032459 337.060775 183.058469 332"></polygon>
                    <path d="M214.930182,349.826389 L210.13574,341.280393 L216.170142,338.055731 L220.799188,346.439456 L214.930182,349.826389 Z M203.605152,329.109001 L209.391968,325.88434 L213.359432,332.575092 L207.407221,336.041183 L203.605152,329.109001 Z M220.799188,335.477189 L218.153874,334.832059 L218.733266,330.88212 L213.194036,321.611836 L208.152008,320 L196,326.770899 L213.111846,357 L225.263854,350.793095 L227,345.150185 L220.799188,335.477189 Z" id="Fill-42" fill="#FFFFFF"></path>
                    <polygon id="Fill-44" fill="#FFFFFF" points="215 316.748384 236.63301 343 250 331.574838 228.01165 305 223.899029 308.727499 242.248544 330.683739 237.266019 334.97812 218.915534 312.77822"></polygon>
                    <polygon id="Fill-46" fill="#FFFFFF" points="232 301.79292 258.800424 323 270 309.685634 261.920201 303.068085 258.559837 307.453361 262.080265 310.164187 258.080626 315.028017 240.160323 300.756543 244.159961 295.813444 247.919994 298.683788 251.000491 294.777066 242.959971 288"></polygon>
                    <polygon id="Fill-48" fill="#FFFFFF" points="245 285.263319 275.209907 302 277.673891 297.135251 265.431062 289.96311 280.455998 291.693654 283 286.747943 261.138363 283.943654 252.154824 271 249.610821 276.111681 255.494132 284.521513 247.384941 280.399582"></polygon>
                    <polygon id="Fill-50" fill="#FFFFFF" points="268.071887 254.582505 266.586959 259.888269 262.577947 258.831109 260.894241 265.336784 268.830588 267.61382 272.358401 255.740489 292 262.084446 287.029573 279 277.810027 276.072097 279.573441 271.111731 283.501761 272.168891 285.185467 265.418642 275.805521 262.897031 272.6792 274.445927 254 268.834695 258.810027 252"></polygon>
                    <path d="M32.9718081,78 C11.6632392,97.642614 35,138 35,138 C27.3280224,97.2759279 32.9718081,78 32.9718081,78" id="Fill-52" fill="#E0D2AB"></path>
                    <path d="M275.028192,78 C275.028192,78 280.671978,97.2759279 273,138 C273,138 296.336761,97.642614 275.028192,78" id="Fill-54" fill="#E0D2AB"></path>
                </g>
            </g>
        </g>
    </g>
</svg>