<?xml version="1.0" standalone="no"?>
<!DOCTYPE svg PUBLIC "-//W3C//DTD SVG 20010904//EN"
 "http://www.w3.org/TR/2001/REC-SVG-20010904/DTD/svg10.dtd">
<svg version="1.0" xmlns="http://www.w3.org/2000/svg"
 width="4096.000000pt" height="3857.000000pt" viewBox="0 0 4096.000000 3857.000000"
 preserveAspectRatio="xMidYMid meet">
<metadata>
Created by potrace 1.16, written by Peter Selinger 2001-2019
</metadata>
<g transform="translate(0.000000,3857.000000) scale(0.100000,-0.100000)"
fill="#000000" stroke="none">
<path d="M8020 38554 c-1029 -91 -2033 -445 -2905 -1023 -186 -124 -490 -347
-551 -406 -6 -5 -30 -26 -54 -45 -24 -19 -48 -39 -54 -45 -6 -5 -47 -41 -91
-80 -44 -38 -149 -137 -234 -220 -563 -551 -1029 -1214 -1339 -1905 -543
-1212 -651 -2493 -316 -3741 109 -410 273 -838 470 -1231 35 -70 64 -132 64
-138 0 -6 -30 -54 -67 -108 -209 -303 -445 -673 -634 -989 -62 -104 -124 -208
-139 -233 -15 -25 -59 -101 -97 -170 -39 -69 -81 -143 -93 -165 -13 -22 -42
-76 -66 -120 -23 -44 -61 -114 -84 -155 -66 -120 -393 -780 -450 -908 -313
-703 -474 -1113 -666 -1687 -381 -1146 -596 -2200 -690 -3390 -21 -273 -30
-1146 -15 -1456 93 -1854 577 -3465 1468 -4888 86 -137 333 -506 383 -571 15
-19 98 -133 185 -253 l158 -219 238 238 c227 227 238 237 248 213 33 -85 172
-414 244 -579 523 -1195 1210 -2342 1996 -3330 115 -144 354 -433 415 -500 17
-19 62 -71 101 -115 357 -409 912 -966 1340 -1346 28 -24 52 -46 55 -49 12
-13 253 -222 335 -290 50 -41 101 -84 115 -96 56 -49 164 -136 315 -256 88
-71 176 -141 195 -156 44 -36 629 -474 696 -522 82 -58 175 -124 264 -186 47
-33 110 -78 140 -99 83 -59 669 -450 800 -534 461 -297 1108 -697 1115 -689 2
2 22 100 45 218 22 118 47 247 55 285 7 39 21 113 30 165 23 130 21 125 49
103 21 -16 284 -236 356 -297 33 -28 366 -295 401 -321 87 -66 432 -324 474
-355 347 -256 910 -624 1370 -895 361 -213 717 -408 1405 -770 570 -301 718
-380 1065 -575 482 -270 945 -562 1383 -872 160 -113 508 -378 688 -523 125
-102 123 -100 224 -185 47 -40 110 -93 140 -119 30 -25 75 -64 100 -86 24 -22
62 -56 84 -75 234 -208 466 -428 797 -759 371 -372 493 -500 804 -843 103
-115 191 -208 195 -208 4 0 41 37 81 82 41 46 76 85 79 88 3 3 48 52 100 110
52 58 122 134 155 170 34 36 99 106 146 156 102 110 764 772 869 869 353 327
413 380 675 599 433 363 805 644 1225 927 349 235 585 381 1005 622 188 107
199 113 285 160 41 22 80 43 85 47 11 9 300 164 520 280 55 29 132 70 170 90
39 21 187 100 330 175 143 75 283 150 310 165 28 15 80 44 118 64 153 82 208
112 317 174 63 36 135 76 160 90 71 39 320 186 500 295 631 384 1191 775 1765
1233 203 161 263 211 325 264 169 146 284 238 292 234 4 -3 8 -14 8 -24 0 -22
140 -753 145 -759 2 -2 82 43 177 100 985 585 1364 825 1953 1233 51 36 365
262 455 328 230 168 709 548 930 736 439 376 654 575 1065 986 358 359 399
402 660 692 82 91 342 393 395 460 14 17 77 96 140 175 391 488 638 831 992
1379 124 191 370 604 458 765 18 33 46 84 62 113 148 262 444 861 587 1187
145 332 160 367 199 465 17 41 38 93 47 114 l17 39 237 -237 238 -238 59 77
c33 43 78 101 101 130 94 117 365 497 467 655 715 1102 1196 2357 1420 3705
122 735 162 1289 153 2145 -5 514 -14 692 -53 1080 -210 2107 -976 4288 -2256
6425 -194 324 -336 547 -555 874 -79 117 -143 217 -143 221 0 5 35 80 78 167
42 87 87 181 99 208 379 860 543 1584 545 2400 1 464 -44 858 -148 1294 -70
295 -203 697 -309 936 -175 395 -338 690 -564 1025 -620 919 -1491 1679 -2486
2170 -757 373 -1507 580 -2324 641 -203 15 -789 6 -971 -14 -1098 -126 -2008
-500 -2910 -1198 -247 -191 -614 -538 -843 -798 -51 -57 -108 -121 -127 -142
l-35 -39 -204 25 c-1396 170 -2808 131 -4251 -116 -1044 -179 -2018 -450
-2957 -823 l-63 -24 -137 54 c-822 327 -1893 620 -2869 784 -969 164 -1804
229 -2779 217 -573 -7 -1061 -38 -1525 -97 -85 -11 -158 -20 -162 -20 -3 0
-50 51 -104 113 -458 526 -992 976 -1557 1314 -162 96 -519 277 -682 345 -560
234 -1144 374 -1740 418 -193 14 -718 11 -905 -6z m6758 -13864 c524 -281
1116 -665 1667 -1081 116 -87 223 -168 238 -181 l28 -23 -98 0 c-75 0 -114 -6
-167 -23 -259 -86 -509 -304 -685 -596 -35 -58 -67 -106 -72 -106 -4 0 -44 13
-87 29 -408 151 -714 467 -891 921 -114 292 -168 583 -178 963 -5 182 -4 217
8 217 8 0 114 -54 237 -120z m11842 -62 c0 -905 -341 -1596 -925 -1878 -108
-53 -228 -95 -232 -83 -9 25 -112 188 -159 251 -171 227 -410 406 -610 456
-77 20 -196 20 -257 2 -26 -8 -47 -11 -47 -8 1 10 300 260 465 388 457 356
939 664 1365 871 150 73 372 172 388 172 9 1 12 -40 12 -171z"/>
</g>
</svg>
