<?xml version="1.0" standalone="no"?>
<!DOCTYPE svg PUBLIC "-//W3C//DTD SVG 20010904//EN"
 "http://www.w3.org/TR/2001/REC-SVG-20010904/DTD/svg10.dtd">
<svg version="1.0" xmlns="http://www.w3.org/2000/svg"
 width="2560.000000pt" height="1584.000000pt" viewBox="0 0 2560.000000 1584.000000"
 preserveAspectRatio="xMidYMid meet">
<metadata>
Created by potrace 1.16, written by Peter Selinger 2001-2019
</metadata>
<g transform="translate(0.000000,1584.000000) scale(0.100000,-0.100000)"
fill="#000000" stroke="none">
<path d="M11840 15020 c-916 -45 -1734 -261 -2603 -689 -987 -486 -1765 -1111
-2377 -1907 -148 -193 -180 -246 -180 -299 0 -31 6 -47 24 -64 51 -48 98 -11
284 227 211 268 316 388 541 613 209 208 375 355 556 491 179 134 406 278 438
278 26 0 160 -73 228 -126 70 -53 251 -231 268 -263 9 -17 6 -23 -27 -42 -232
-141 -658 -435 -982 -678 -374 -280 -470 -384 -417 -452 47 -60 150 -9 457
231 281 219 650 473 948 654 l143 87 20 -23 c30 -35 87 -156 105 -223 25 -92
30 -323 9 -426 -16 -79 -24 -100 -74 -194 -27 -51 -27 -77 2 -111 36 -41 67
-28 127 54 98 134 128 226 137 417 8 198 -27 401 -93 540 l-24 50 22 17 c74
57 408 211 634 293 212 77 640 193 655 178 10 -10 83 -211 259 -713 242 -691
322 -914 340 -950 37 -72 96 -102 136 -69 29 24 10 111 -89 414 -92 278 -437
1361 -437 1370 0 8 158 54 292 85 179 42 503 99 603 106 l82 7 -4 -99 c-9
-192 44 -322 192 -469 157 -157 298 -247 1255 -805 393 -230 768 -450 832
-489 173 -104 257 -133 288 -96 10 12 10 21 0 45 -26 62 -122 132 -431 314
-989 582 -1494 886 -1605 969 -199 150 -306 295 -334 457 -11 63 -7 173 9 198
13 21 148 31 488 38 599 12 1074 -28 1618 -137 928 -185 1884 -565 2706 -1075
203 -126 377 -250 504 -357 218 -186 282 -227 353 -227 51 0 64 18 50 69 -14
50 -38 87 -152 236 -174 225 -732 768 -1100 1069 -1034 847 -2380 1361 -3841
1465 -207 15 -635 21 -835 11z m447 -216 c19 -5 16 -12 -45 -87 -104 -129
-312 -466 -344 -558 -8 -24 -16 -28 -66 -34 -291 -34 -791 -125 -1009 -184
-30 -8 -32 -7 -43 22 -30 82 -219 634 -222 647 -8 36 545 147 892 179 63 6
131 13 150 14 63 6 664 7 687 1z m740 -35 c821 -89 1618 -327 2351 -701 301
-154 604 -344 817 -514 113 -91 366 -336 425 -412 l33 -43 -104 64 c-750 462
-1932 859 -2894 971 -331 39 -1026 64 -1308 46 -110 -6 -201 -9 -204 -7 -9 10
70 161 138 262 74 111 187 237 284 318 l59 50 111 -7 c60 -4 192 -16 292 -27z
m-2684 -216 c3 -10 28 -74 57 -143 76 -185 192 -511 187 -525 -3 -6 -31 -17
-63 -24 -99 -21 -523 -166 -742 -253 -114 -45 -282 -120 -374 -165 l-168 -84
-92 96 c-50 53 -126 125 -167 159 -81 67 -228 166 -248 166 -32 0 -16 22 50
67 351 242 1043 573 1447 694 115 34 106 33 113 12z"/>
<path d="M12234 11646 c-139 -27 -250 -110 -311 -234 -22 -46 -28 -70 -28
-132 0 -65 4 -82 30 -129 39 -71 97 -119 208 -176 107 -55 132 -75 148 -122
25 -78 -58 -153 -171 -153 -150 0 -292 97 -314 214 -9 46 -29 62 -60 48 -31
-14 -168 -275 -164 -312 4 -36 45 -38 93 -6 60 41 106 36 218 -24 202 -108
416 -120 581 -32 75 39 186 154 224 231 78 156 14 319 -160 407 -162 82 -219
165 -173 254 22 43 77 57 162 41 36 -7 82 -20 103 -31 44 -22 107 -90 126
-135 16 -38 49 -54 70 -34 16 17 74 173 74 200 0 29 -37 39 -82 21 -38 -15
-39 -15 -121 28 -45 23 -107 51 -137 62 -72 25 -222 32 -316 14z"/>
<path d="M23075 11649 c-187 -15 -301 -91 -373 -247 -19 -43 -26 -73 -26 -122
0 -123 66 -208 231 -295 150 -79 191 -141 141 -215 -33 -49 -81 -70 -164 -71
-144 -1 -275 85 -309 204 -16 56 -18 58 -48 55 -29 -3 -36 -12 -104 -143 -40
-77 -73 -150 -73 -162 0 -34 41 -40 78 -13 64 47 132 43 228 -15 97 -59 202
-88 319 -89 119 -1 186 14 278 62 83 43 164 129 210 222 27 55 32 76 32 140 0
63 -4 82 -27 120 -37 63 -69 91 -173 150 -137 79 -175 122 -175 199 0 28 7 48
24 68 23 27 28 28 108 27 54 -1 96 -7 121 -18 52 -23 124 -91 149 -141 40 -79
67 -70 108 37 42 110 44 122 26 137 -13 11 -25 11 -66 0 l-51 -13 -87 46
c-138 73 -220 90 -377 77z"/>
<path d="M17175 11640 c-184 -33 -369 -135 -480 -264 -64 -76 -133 -193 -155
-265 -84 -269 112 -575 377 -589 88 -5 170 17 324 89 58 27 109 49 114 49 5 0
40 -23 79 -52 65 -48 76 -52 126 -53 53 0 55 1 72 35 28 54 198 466 198 478 0
6 -10 18 -22 26 -19 14 -62 16 -274 16 -235 0 -252 -1 -268 -19 -26 -29 -12
-59 34 -71 45 -12 50 -23 50 -98 -1 -138 -85 -211 -233 -200 -98 7 -146 62
-154 176 -9 130 51 283 154 393 65 69 135 112 233 145 65 21 212 24 280 5 53
-15 120 -78 120 -112 0 -37 14 -51 45 -47 25 3 35 16 83 106 67 126 65 137
-20 128 -59 -6 -66 -4 -152 39 -130 64 -218 86 -361 90 -66 2 -142 0 -170 -5z"/>
<path d="M10890 11624 c-14 -2 -52 -9 -85 -15 -182 -31 -360 -130 -454 -253
-133 -173 -160 -422 -63 -599 62 -115 180 -210 305 -249 59 -17 86 -20 195
-15 150 6 215 21 339 82 70 35 112 64 175 124 122 116 187 235 209 385 37 245
-108 456 -356 521 -60 15 -220 27 -265 19z m206 -187 c82 -89 69 -272 -33
-470 -55 -106 -159 -220 -234 -255 -106 -51 -193 -14 -225 96 -59 203 138 584
341 660 17 6 50 10 75 8 35 -3 51 -11 76 -39z"/>
<path d="M14435 11600 c-16 -5 -166 -122 -332 -259 l-301 -250 -180 -3 c-160
-3 -182 -5 -201 -22 -29 -26 -26 -60 5 -85 23 -18 41 -21 123 -21 l96 -1 -50
-45 c-60 -53 -272 -217 -300 -231 -11 -6 -51 -13 -90 -16 -49 -5 -74 -12 -82
-24 -19 -24 -16 -50 7 -73 19 -19 33 -20 300 -20 267 0 281 1 300 20 37 37 14
100 -37 100 -26 0 -73 54 -73 83 1 35 21 62 102 137 l76 70 162 0 c197 0 228
-8 297 -75 88 -85 84 -155 -12 -207 -60 -32 -77 -54 -73 -93 l3 -30 499 -3
c360 -1 503 1 512 9 8 6 14 27 14 45 0 30 -4 35 -30 40 -79 16 -69 68 65 335
59 117 119 233 133 257 l25 43 57 -108 c31 -59 110 -211 175 -338 65 -126 131
-242 146 -257 26 -27 32 -28 127 -28 82 0 102 3 114 18 9 9 115 199 238 422
246 449 270 483 354 495 53 8 74 32 56 65 -10 19 -21 20 -240 20 -125 0 -235
-3 -244 -6 -19 -7 -21 -47 -3 -62 6 -5 27 -13 45 -17 64 -13 111 -86 94 -148
-8 -30 -164 -327 -172 -326 -3 0 -86 119 -184 265 -152 225 -185 269 -220 287
-38 20 -59 22 -256 25 -137 2 -225 0 -243 -7 -53 -21 -47 -68 11 -83 55 -15
46 -42 -134 -399 -140 -275 -170 -329 -193 -337 -31 -11 -66 0 -79 25 -6 10
-64 193 -131 407 -66 214 -125 394 -130 399 -14 14 -110 18 -146 7z m-115
-370 l0 -140 -177 0 c-135 0 -174 3 -165 12 25 25 327 267 335 267 4 1 7 -62
7 -139z"/>
<path d="M5755 11580 c-637 -5 -672 -6 -702 -24 -65 -40 -62 -94 10 -133 28
-16 73 -19 397 -23 331 -5 368 -7 403 -24 40 -20 67 -60 67 -98 0 -24 -80
-180 -108 -212 -36 -39 -52 -41 -622 -46 l-555 -5 0 -30 0 -30 523 -5 524 -5
20 -24 c13 -17 17 -33 13 -50 -9 -37 -135 -260 -167 -296 l-26 -30 -281 -3
c-258 -3 -282 -4 -290 -21 -6 -10 -7 -27 -4 -39 5 -22 8 -22 240 -22 142 0
242 -4 254 -10 20 -11 26 -58 10 -75 -5 -6 -75 -134 -156 -285 -185 -346 -172
-324 -209 -346 -25 -15 -58 -19 -183 -22 -128 -4 -153 -7 -158 -21 -4 -10 2
-22 15 -33 18 -15 42 -18 130 -18 119 0 137 -8 127 -58 -11 -53 -267 -520
-303 -551 -61 -54 -66 -54 -662 -58 l-553 -4 3 -27 3 -27 522 -5 c510 -5 522
-5 550 -26 54 -40 54 -42 -225 -564 -245 -460 -260 -486 -298 -505 -37 -19
-62 -20 -611 -23 -487 -3 -573 -5 -584 -18 -9 -11 -8 -18 6 -34 18 -19 32 -20
556 -20 325 0 548 -4 563 -10 14 -5 26 -17 26 -26 0 -28 -290 -568 -320 -596
-46 -43 -89 -50 -335 -57 l-230 -6 0 -30 0 -30 217 -5 c208 -5 218 -6 240 -27
l22 -22 -67 -128 c-228 -442 -333 -628 -362 -645 -61 -34 -145 -38 -957 -38
-438 0 -803 -3 -812 -6 -13 -5 -23 -48 -13 -56 1 -2 369 -5 817 -8 900 -6 875
-4 875 -65 0 -19 -45 -115 -124 -264 -110 -205 -129 -235 -158 -247 -24 -11
-91 -14 -266 -14 -215 0 -235 -1 -251 -19 -9 -10 -14 -25 -11 -34 6 -13 38
-16 213 -19 221 -4 262 -12 262 -52 0 -28 -183 -355 -217 -388 -60 -57 -66
-58 -505 -58 -496 0 -566 -9 -598 -78 -16 -36 13 -72 76 -94 46 -16 199 -17
2311 -15 l2263 2 27 28 c16 15 181 292 368 615 l340 587 1695 5 c969 3 1704 9
1715 14 36 16 65 49 65 73 0 54 -39 86 -121 98 -90 13 -156 70 -179 154 -14
52 -12 190 3 242 10 32 1347 2421 1643 2935 33 58 86 102 131 109 21 3 54 13
73 23 62 31 67 107 7 139 -30 17 -84 18 -722 21 -717 3 -761 1 -817 -39 -24
-18 -29 -27 -26 -57 2 -31 9 -40 41 -58 24 -13 64 -23 105 -27 58 -4 70 -9 94
-36 51 -57 46 -71 -148 -430 -96 -179 -187 -336 -201 -347 -47 -40 -98 -48
-333 -54 -219 -5 -225 -6 -228 -26 -2 -11 3 -26 10 -32 8 -6 85 -12 199 -14
210 -3 239 -12 239 -69 0 -21 -181 -359 -596 -1117 -328 -598 -606 -1098 -618
-1111 -24 -28 -91 -60 -123 -61 -13 0 -37 13 -55 29 -29 26 -33 35 -36 97 -2
49 56 520 202 1638 113 864 206 1590 206 1614 0 24 -5 52 -11 64 -24 44 -57
48 -411 48 -198 0 -348 -4 -370 -10 -46 -13 -74 -41 -213 -209 -60 -73 -123
-144 -138 -157 l-29 -24 -327 0 c-318 0 -328 -1 -347 -21 -14 -15 -16 -24 -8
-37 10 -15 42 -18 285 -22 151 -3 282 -9 291 -14 9 -4 19 -14 22 -22 6 -16
-583 -766 -622 -792 -20 -13 -57 -18 -157 -22 -131 -5 -155 -10 -155 -34 0
-32 35 -45 125 -48 54 -2 90 -7 92 -14 7 -21 -568 -741 -605 -757 -18 -7 -131
-13 -337 -17 l-310 -5 -3 -32 -3 -33 243 -1 c276 -2 302 -5 306 -36 3 -17
-100 -151 -404 -530 -223 -279 -420 -523 -437 -540 -105 -112 -505 -226 -936
-268 -63 -6 -73 -5 -68 7 7 19 736 1381 823 1538 35 63 484 900 998 1860 626
1170 947 1760 975 1791 74 85 66 83 486 89 351 5 372 6 417 27 95 43 99 105
10 146 l-47 22 -880 0 c-484 1 -1181 -2 -1550 -5z m2220 -3090 c-78 -495 -144
-902 -147 -905 -3 -3 -247 -4 -542 -3 l-537 3 682 903 c375 496 682 902 683
902 1 0 -62 -405 -139 -900z m-231 -1077 c-2 -10 -33 -191 -69 -403 -116 -679
-109 -655 -215 -753 -96 -90 -201 -138 -421 -196 -82 -22 -149 -37 -149 -35 0
3 44 85 99 182 54 97 102 187 106 200 4 15 1 32 -10 49 -15 22 -22 25 -56 20
-22 -3 -56 -17 -75 -32 -20 -15 -142 -152 -272 -304 -405 -474 -555 -632 -747
-786 -284 -228 -588 -349 -1006 -402 -104 -13 -220 -17 -519 -17 -352 -1 -388
1 -418 17 -70 38 -77 18 195 526 l248 463 910 -3 c679 -3 917 -1 936 8 41 18
59 42 59 77 0 48 -33 73 -118 91 -40 8 -94 26 -121 39 -61 31 -138 106 -158
154 -22 51 -21 138 3 188 10 23 168 242 349 488 l330 445 562 1 c529 0 561 -1
557 -17z"/>
<path d="M9191 11557 c-23 -29 -17 -60 14 -76 35 -16 44 -28 45 -56 1 -11 -79
-178 -177 -372 -161 -319 -181 -354 -214 -372 -20 -12 -43 -21 -51 -21 -27 0
-69 -51 -66 -79 l3 -26 513 -3 c323 -1 520 1 531 8 28 14 244 339 237 356 -9
24 -24 16 -111 -65 -137 -127 -273 -182 -452 -182 -52 0 -97 1 -99 4 -8 8 375
753 399 775 12 12 41 25 62 30 34 7 41 12 43 35 7 57 9 57 -343 57 -256 0
-325 -3 -334 -13z"/>
<path d="M18273 11563 c-29 -11 -10 -73 22 -73 14 0 33 -12 45 -27 35 -44 23
-93 -53 -225 -36 -62 -115 -205 -177 -318 -62 -113 -122 -216 -134 -228 -27
-30 -61 -47 -111 -57 -22 -4 -46 -11 -52 -17 -18 -15 -16 -55 3 -62 9 -3 280
-6 603 -6 454 0 591 3 604 13 20 15 197 239 197 249 0 4 -13 8 -28 8 -19 0
-49 -16 -88 -46 -71 -56 -145 -94 -239 -124 -57 -19 -100 -24 -232 -28 -97 -2
-163 -1 -163 5 0 9 124 315 135 333 9 15 180 12 218 -4 18 -7 44 -27 60 -45
31 -35 57 -39 79 -13 16 19 138 269 138 283 0 19 -48 8 -70 -16 -35 -38 -117
-57 -237 -58 -57 0 -106 2 -109 5 -3 3 37 90 88 193 l93 187 150 -4 c143 -3
152 -4 202 -32 61 -34 91 -64 130 -131 28 -47 60 -68 90 -57 19 6 113 185 113
214 0 28 -31 65 -67 79 -25 9 -1187 12 -1210 2z"/>
<path d="M19863 11558 c-25 -32 -18 -78 12 -78 23 0 45 -30 45 -62 0 -33 -335
-684 -373 -726 -11 -12 -38 -28 -60 -34 -44 -13 -79 -52 -75 -82 3 -21 7 -21
498 -24 327 -2 507 1 532 8 33 9 47 27 147 183 126 195 128 226 8 110 -125
-121 -231 -166 -434 -185 -67 -6 -126 -8 -130 -4 -8 8 371 761 398 790 9 10
34 22 55 25 46 8 62 30 46 65 l-12 26 -324 0 c-247 0 -326 -3 -333 -12z"/>
<path d="M21260 11555 c-17 -21 2 -65 29 -65 10 0 29 -9 42 -19 47 -38 36 -69
-156 -426 -97 -181 -187 -341 -199 -354 -26 -29 -92 -60 -128 -61 -26 0 -58
-22 -58 -40 0 -5 7 -16 16 -24 14 -14 83 -16 609 -16 550 0 594 1 613 18 23
20 192 237 192 246 0 3 -15 6 -33 6 -25 0 -49 -12 -93 -46 -77 -61 -201 -120
-289 -139 -77 -16 -359 -21 -353 -6 2 5 37 83 78 175 l75 166 87 0 c102 0 158
-18 189 -61 28 -40 54 -37 83 9 42 66 135 259 129 266 -13 12 -41 5 -59 -15
-10 -12 -34 -28 -53 -36 -46 -20 -184 -33 -257 -25 l-62 7 98 185 99 185 129
3 c111 2 138 0 185 -18 68 -25 136 -84 168 -144 24 -46 56 -66 92 -58 10 2 35
38 60 85 54 106 57 118 41 155 -26 63 -12 62 -667 62 -521 0 -596 -2 -607 -15z"/>
<path d="M21855 9804 c-384 -29 -644 -128 -838 -318 -61 -61 -149 -174 -191
-248 -15 -26 -37 -50 -49 -54 -12 -4 -67 -10 -122 -13 l-100 -6 -3 -32 c-4
-37 -8 -35 91 -33 54 1 68 -2 73 -15 4 -9 -7 -62 -25 -118 -72 -233 -69 -477
8 -717 24 -74 26 -90 14 -94 -8 -3 -64 -6 -123 -6 -100 0 -110 -2 -120 -21
-22 -41 1 -49 139 -49 98 0 132 -4 149 -15 33 -24 341 -404 342 -423 0 -32
-53 -36 -465 -39 -225 -2 -420 -6 -432 -8 -26 -6 -32 -45 -10 -64 9 -7 170
-11 515 -13 l501 -3 31 -30 c83 -79 252 -330 311 -462 45 -100 79 -220 79
-277 0 -77 -18 -89 -133 -96 -78 -4 -92 -8 -95 -23 -7 -36 16 -47 97 -47 95 0
117 -12 108 -61 -15 -91 -89 -234 -161 -309 -119 -125 -292 -180 -565 -180
-164 0 -247 16 -340 65 -281 148 -373 535 -246 1036 28 108 30 164 6 164 -8 0
-108 -148 -223 -330 -115 -181 -220 -341 -233 -354 -18 -19 -38 -25 -94 -30
-39 -4 -76 -12 -82 -18 -18 -18 -2 -63 22 -63 29 0 59 -18 59 -35 0 -17 -151
-247 -157 -241 -3 3 -42 85 -87 183 -188 405 -414 794 -674 1161 -51 74 -92
135 -90 136 1 1 51 10 110 19 308 51 682 233 967 472 217 183 340 364 381 566
87 421 -118 755 -558 909 -212 75 -188 73 -1292 74 l-985 1 -43 -23 c-76 -40
-82 -106 -14 -140 20 -11 68 -22 105 -25 122 -11 204 -79 194 -162 -3 -28 -65
-149 -213 -414 -167 -299 -215 -376 -239 -389 -23 -12 -84 -18 -255 -26 -217
-11 -225 -12 -228 -32 -2 -11 3 -26 10 -31 8 -7 83 -12 183 -15 143 -2 175 -6
198 -21 15 -9 27 -23 27 -30 0 -19 -477 -878 -501 -902 -18 -18 -36 -20 -220
-25 -163 -4 -202 -8 -209 -20 -30 -48 2 -60 162 -60 138 0 180 -10 186 -42 4
-19 -626 -1159 -661 -1197 -41 -45 -102 -63 -237 -72 -141 -10 -200 -27 -221
-65 -18 -35 3 -72 56 -99 39 -20 60 -20 885 -20 793 0 847 1 881 18 93 46 57
145 -58 162 -66 10 -117 63 -133 138 -12 51 -11 58 13 108 13 30 194 378 401
774 l376 720 76 -2 c59 -1 88 -8 130 -28 144 -70 241 -284 308 -675 35 -204
70 -510 59 -521 -21 -21 -142 -29 -414 -29 -249 0 -288 -2 -300 -16 -9 -11
-10 -20 -2 -32 9 -15 47 -18 334 -23 191 -4 341 -11 365 -18 l42 -11 7 -73
c13 -138 56 -442 80 -564 25 -129 25 -146 -3 -160 -9 -4 -191 -9 -404 -11
-377 -3 -388 -4 -399 -23 -24 -46 -15 -47 415 -51 349 -3 405 -5 426 -19 18
-12 34 -43 58 -117 70 -213 221 -461 394 -648 369 -399 857 -664 1398 -760
132 -24 552 -27 695 -6 706 106 1379 457 1984 1036 536 513 991 1098 1241
1597 92 184 119 268 103 322 -13 46 -30 43 -60 -8 -16 -26 -40 -61 -54 -78
l-27 -31 -148 -6 c-137 -5 -149 -7 -152 -24 -7 -35 25 -46 133 -46 104 0 125
-7 125 -42 0 -31 -146 -309 -225 -427 -108 -163 -211 -288 -255 -311 -26 -13
-68 -20 -151 -25 -144 -8 -159 -11 -159 -33 0 -35 21 -42 124 -42 124 0 141
-8 104 -47 -14 -15 -62 -74 -105 -130 -103 -133 -258 -306 -369 -413 -130
-125 -285 -256 -314 -266 -14 -4 -115 -8 -225 -8 l-200 -1 -3 -31 -3 -31 62
-7 c34 -3 87 -6 119 -6 61 0 97 -17 87 -42 -8 -23 -193 -159 -304 -225 -246
-145 -569 -254 -877 -298 -349 -50 -727 22 -1029 194 -333 191 -570 525 -682
961 -15 58 -33 121 -41 140 -28 74 -64 214 -64 252 0 76 92 128 266 150 148
19 224 4 366 -72 342 -181 875 -280 1168 -217 292 63 557 198 745 378 225 216
326 442 326 724 0 193 -41 354 -146 570 -107 221 -234 398 -460 642 -143 154
-234 280 -309 423 -97 187 -136 319 -136 462 0 101 19 179 65 275 98 200 260
281 535 270 218 -10 360 -66 491 -197 113 -112 169 -243 169 -393 0 -103 -4
-107 -105 -107 -63 0 -87 -4 -99 -16 -38 -37 -9 -54 96 -54 124 0 125 -2 94
-185 -14 -77 -29 -162 -36 -190 -6 -27 -9 -60 -5 -72 7 -28 59 -57 89 -49 16
4 102 149 349 590 180 321 327 590 327 598 0 8 -9 23 -19 32 -26 23 -92 18
-221 -17 -132 -35 -271 -50 -348 -38 -71 11 -81 16 -182 86 -137 96 -304 167
-470 200 -75 15 -311 26 -405 19z m-2854 -249 c100 -51 153 -164 152 -330 -1
-170 -39 -302 -163 -560 -108 -224 -241 -392 -409 -520 -76 -58 -222 -135
-255 -135 -12 0 -54 24 -92 54 -39 30 -107 77 -152 104 l-81 49 325 594 c439
802 402 739 449 761 54 26 156 18 226 -17z"/>
<path d="M14040 9740 c-1590 -5 -1616 -5 -1655 -25 -112 -56 -70 -139 80 -156
122 -13 160 -51 159 -155 -1 -75 -35 -151 -91 -205 -30 -29 -1240 -996 -1705
-1363 -49 -38 -88 -75 -88 -82 0 -24 360 -1668 371 -1696 17 -41 92 -105 137
-118 28 -7 571 -10 1824 -8 l1783 3 51 27 c28 15 64 42 80 60 34 39 641 1094
653 1135 17 60 -18 87 -93 71 -65 -14 -114 -56 -234 -198 -503 -596 -803 -824
-1192 -908 -336 -73 -670 -39 -670 69 0 18 145 319 395 820 l396 790 202 -3
c187 -3 205 -5 244 -26 118 -62 136 -206 68 -535 -14 -66 -23 -123 -20 -125 3
-3 17 -2 32 4 22 7 90 121 380 629 415 728 408 716 393 744 -20 39 -59 27
-115 -36 -177 -199 -262 -273 -395 -342 -153 -79 -269 -103 -489 -103 -84 1
-154 2 -155 4 -2 2 182 357 407 791 l410 787 181 0 c205 0 287 -13 382 -60
108 -53 202 -173 247 -315 60 -189 69 -413 31 -807 l-7 -68 84 0 84 0 313 615
c221 435 312 624 312 647 0 47 -32 93 -82 120 l-43 23 -525 0 c-289 0 -1252
-2 -2140 -5z m-10 -104 c53 -28 70 -54 70 -110 0 -35 -8 -64 -32 -108 -56
-105 -85 -117 -311 -125 l-158 -6 3 -31 3 -31 155 -5 c153 -5 180 -10 180 -33
-1 -28 -639 -1243 -661 -1259 -38 -27 -138 -38 -357 -38 -210 0 -242 -5 -242
-40 0 -35 32 -40 243 -40 214 0 266 -5 273 -25 3 -7 -181 -369 -408 -805 -331
-637 -419 -797 -446 -818 -35 -26 -109 -40 -157 -28 -37 9 -102 72 -114 109
-15 49 -395 2036 -390 2040 2 2 308 239 679 527 371 288 702 547 735 576 127
110 294 217 399 255 45 17 77 19 276 16 197 -2 229 -4 260 -21z"/>
<path d="M8435 5570 c-25 -28 -17 -81 45 -280 321 -1034 658 -1791 1160 -2600
256 -412 776 -1147 1083 -1530 84 -105 81 -99 60 -94 -567 128 -1057 304
-1573 565 -692 349 -1298 801 -1905 1420 -377 385 -593 655 -869 1090 -45 71
-88 97 -131 77 -42 -19 -34 -68 33 -199 130 -255 385 -613 667 -934 141 -161
557 -569 729 -715 1149 -979 2408 -1526 3831 -1666 329 -32 884 -34 1215 -5
896 80 1778 323 2545 702 647 319 1247 747 1779 1269 378 372 641 687 891
1070 82 124 256 419 304 514 30 59 33 113 6 132 -52 38 -87 3 -210 -212 -167
-291 -376 -593 -560 -809 -270 -316 -658 -697 -975 -956 -490 -400 -1066 -744
-1639 -978 -82 -34 -106 -40 -112 -29 -24 37 -568 1701 -1089 3328 -128 399
-241 739 -252 757 -22 37 -49 49 -78 33 -50 -27 -45 -43 412 -1490 115 -366
273 -863 350 -1105 227 -715 499 -1565 504 -1579 16 -41 -610 -229 -1066 -320
-434 -87 -664 -107 -1225 -107 -528 0 -862 19 -1145 68 l-95 16 -120 121
c-385 387 -1076 1343 -1471 2037 -214 375 -535 1085 -729 1613 -84 230 -129
370 -175 552 -41 162 -66 223 -102 248 -31 22 -71 20 -93 -4z"/>
</g>
</svg>
