<?xml version="1.0" standalone="no"?>
<!DOCTYPE svg PUBLIC "-//W3C//DTD SVG 20010904//EN"
 "http://www.w3.org/TR/2001/REC-SVG-20010904/DTD/svg10.dtd">
<svg version="1.0" xmlns="http://www.w3.org/2000/svg"
 width="2160.000000pt" height="2154.000000pt" viewBox="0 0 2160.000000 2154.000000"
 preserveAspectRatio="xMidYMid meet">
<metadata>
Created by potrace 1.16, written by Peter Selinger 2001-2019
</metadata>
<g transform="translate(0.000000,2154.000000) scale(0.100000,-0.100000)"
fill="#000000" stroke="none">
<path d="M9885 21323 c-634 -30 -1223 -182 -1845 -475 -530 -250 -1124 -661
-1542 -1066 l-117 -114 -208 -102 c-376 -185 -779 -415 -1126 -643 -118 -76
-186 -114 -256 -140 -566 -209 -1055 -645 -1335 -1192 -50 -97 -67 -119 -174
-227 -166 -167 -560 -636 -714 -850 -18 -25 -45 -52 -60 -60 -62 -32 -277
-204 -362 -289 -410 -410 -773 -1090 -971 -1820 -19 -71 -42 -150 -50 -175
-18 -55 -107 -588 -100 -600 3 -5 -8 -48 -24 -97 -17 -48 -64 -214 -105 -368
-42 -157 -150 -507 -245 -797 -175 -528 -239 -760 -305 -1095 -199 -1012 -170
-2006 83 -2882 111 -381 281 -777 450 -1046 48 -76 79 -145 137 -302 376
-1022 908 -1961 1606 -2835 254 -318 497 -586 829 -913 1712 -1686 3958 -2730
6389 -2969 721 -71 1515 -68 2240 9 2836 303 5480 1783 7213 4038 67 87 134
177 150 199 30 45 69 159 86 252 13 71 26 87 105 129 120 64 185 151 428 572
710 1233 1154 2640 1282 4065 53 586 53 1238 0 1820 -149 1637 -702 3216
-1610 4596 -121 185 -158 224 -291 307 -90 57 -90 57 -121 187 -29 122 -39
141 -155 285 -261 325 -491 577 -828 910 -524 516 -1056 944 -1659 1332 -336
216 -763 460 -899 513 -79 31 -228 67 -327 81 l-88 11 -85 76 c-100 88 -207
160 -306 206 -278 131 -999 370 -1480 490 -1204 299 -2450 387 -3703 260 -84
-8 -157 -14 -161 -12 -4 2 112 165 260 363 177 238 263 362 256 367 -11 7
-128 8 -262 1z m-495 -441 c0 -5 -12 -19 -26 -33 -15 -13 -70 -76 -123 -139
-426 -509 -697 -1077 -766 -1603 -32 -251 -73 -74 459 -2013 261 -951 473
-1730 471 -1732 -7 -8 -170 82 -266 147 -144 96 -246 180 -372 306 -258 257
-461 538 -660 914 l-55 104 -9 -49 c-4 -27 -8 -184 -8 -349 0 -336 12 -459 70
-750 85 -422 217 -799 429 -1223 330 -659 786 -1277 1360 -1839 108 -106 193
-193 189 -193 -20 0 -308 165 -443 254 -292 192 -707 522 -968 770 -34 33 -65
57 -67 54 -3 -3 40 -228 95 -499 56 -272 317 -1573 580 -2892 264 -1319 486
-2419 493 -2444 l13 -46 131 324 c72 178 158 392 191 474 48 118 61 145 66
125 3 -14 73 -630 156 -1370 83 -740 153 -1361 156 -1381 5 -36 3 -38 -102
-129 -595 -513 -1244 -778 -1999 -815 -251 -12 -624 29 -860 95 -58 17 -107
30 -110 30 -6 0 37 -69 141 -225 177 -265 477 -569 808 -815 977 -727 2284
-1140 3961 -1252 190 -12 1070 -18 1412 -8 218 6 241 -8 83 -48 -702 -180
-1220 -274 -1820 -329 -246 -22 -1060 -26 -1290 -5 -254 23 -489 52 -700 88
-1509 255 -2928 962 -4169 2078 -618 555 -1197 1230 -1627 1894 -55 84 -135
208 -180 277 -106 164 -220 372 -300 546 -60 130 -73 169 -58 169 3 0 29 -21
58 -46 137 -124 477 -318 746 -425 462 -184 1095 -329 1640 -375 100 -8 106
-27 -51 151 -865 982 -1634 2064 -2051 2885 -84 166 -203 488 -283 768 -32
111 -30 148 4 82 126 -242 476 -625 720 -790 128 -86 333 -186 365 -178 9 2
-5 35 -41 98 -258 448 -534 1185 -722 1925 -23 88 -41 164 -41 169 0 5 23 -22
52 -60 226 -299 608 -575 1019 -737 210 -83 506 -160 703 -182 l60 -7 -85 91
c-155 168 -291 325 -375 432 -544 699 -840 1423 -914 2238 -14 148 -14 555 0
707 83 920 438 1850 1074 2819 213 323 371 537 609 823 141 169 382 438 428
477 l33 27 8 152 c17 330 92 752 146 825 376 507 881 930 1502 1259 291 154
685 309 980 386 102 27 130 31 130 18z m4141 -2202 c133 -14 264 -35 381 -64
l93 -23 -55 -6 c-30 -3 -101 -10 -157 -16 -240 -25 -499 -102 -681 -203 -185
-102 -372 -263 -491 -421 l-64 -85 -33 99 c-48 141 -97 256 -169 396 l-63 122
102 40 c208 81 443 139 641 159 128 13 375 14 496 2z m-4246 -285 c631 -423
1175 -938 1631 -1541 142 -189 335 -478 434 -652 60 -106 79 -131 95 -129 44
5 220 315 313 552 110 278 196 607 243 922 7 46 14 81 16 79 18 -18 99 -509
127 -771 60 -562 54 -1238 -14 -1805 -92 -750 -265 -1432 -542 -2128 -45 -111
-82 -201 -83 -200 -1 2 19 89 45 193 178 704 324 1507 399 2180 46 410 75 909
69 1195 -3 147 -4 155 -23 155 -17 0 -28 -24 -72 -155 -87 -258 -213 -608
-260 -725 -47 -116 -192 -406 -244 -490 l-32 -49 -76 224 c-204 598 -435 1075
-686 1422 -80 111 -284 318 -313 318 -13 0 -22 -6 -22 -15 0 -8 24 -112 54
-232 249 -1006 430 -2083 502 -2983 13 -176 29 -930 18 -870 -3 14 -23 134
-45 268 -264 1603 -849 3443 -1678 5275 -16 37 -26 67 -21 67 5 0 79 -47 165
-105z m-3500 -77 c-132 -138 -322 -356 -459 -528 -1005 -1258 -1634 -2765
-1820 -4360 -45 -390 -51 -501 -51 -1010 0 -476 6 -621 40 -935 8 -71 13 -130
12 -131 -6 -6 -84 193 -128 323 -174 515 -258 1189 -230 1843 18 426 54 754
123 1124 16 86 17 110 7 116 -20 13 -31 3 -88 -76 -285 -402 -518 -993 -615
-1564 -55 -319 -61 -400 -61 -805 0 -387 5 -474 46 -755 173 -1195 753 -2440
1729 -3708 81 -105 104 -142 88 -137 -209 62 -524 239 -760 427 -434 346 -781
784 -1133 1431 -42 79 -54 -19 -30 -253 68 -670 265 -1436 546 -2132 846
-2091 2431 -3771 4632 -4913 825 -428 1930 -729 3042 -830 541 -49 1174 -48
1720 1 1306 117 2607 499 3865 1135 267 135 602 319 810 447 68 42 -90 -89
-260 -215 -677 -502 -1573 -974 -2440 -1284 -1294 -462 -2709 -653 -3990 -539
-1135 102 -2165 376 -3221 858 -96 44 -232 106 -304 137 -691 306 -1491 811
-2136 1349 -920 766 -1644 1668 -2147 2673 -34 67 -103 188 -154 270 -324 520
-624 1117 -809 1610 -307 820 -452 1605 -465 2508 l-4 340 39 -185 c200 -953
450 -1677 761 -2202 141 -237 148 -248 169 -248 35 0 33 27 -22 210 -33 111
-121 496 -192 835 -123 593 -184 1041 -215 1595 -8 139 -19 227 -45 355 -164
808 -175 1692 -30 2410 134 666 379 1206 755 1658 45 54 83 97 86 95 2 -3 -23
-76 -55 -164 -196 -528 -304 -1016 -326 -1474 -7 -131 -6 -147 10 -160 15 -13
19 -12 35 8 10 12 26 54 35 94 42 172 179 549 300 823 255 576 613 1151 1018
1636 104 124 107 129 152 255 101 280 259 636 361 818 114 199 278 425 434
596 l50 55 -45 -97 c-128 -277 -229 -708 -166 -708 4 0 61 64 126 141 446 532
919 987 1263 1217 84 55 238 141 256 142 4 0 -45 -55 -109 -122z m6975 -3589
c123 -430 167 -983 105 -1328 -53 -296 -183 -587 -369 -826 -119 -151 -337
-340 -476 -410 -33 -17 -32 -14 22 42 290 306 516 1033 628 2018 24 212 50
512 50 574 0 24 2 42 5 39 3 -3 19 -52 35 -109z m-643 -3491 c-3 -7 -5 -2 -5
12 0 14 2 19 5 13 2 -7 2 -19 0 -25z m-175 -1656 l-168 -1594 403 -1390 c222
-764 403 -1395 403 -1402 0 -10 -580 -459 -1445 -1120 -71 -55 -83 -61 -54
-30 20 21 300 317 622 656 l586 617 -11 38 c-6 21 -181 656 -388 1411 l-378
1372 296 1542 c164 847 298 1530 299 1517 2 -13 -73 -741 -165 -1617z"/>
<path d="M8582 20355 c-190 -78 -371 -204 -553 -385 -74 -74 -167 -178 -206
-230 -225 -305 -383 -663 -483 -1093 -32 -141 -28 -142 56 -18 130 191 293
346 414 392 55 21 143 25 186 9 15 -6 28 -9 30 -7 2 2 10 41 19 88 61 354 289
827 575 1194 55 71 64 85 53 85 -4 0 -45 -16 -91 -35z"/>
<path d="M6448 16272 c-200 -505 -278 -909 -265 -1366 12 -419 102 -763 297
-1134 137 -260 298 -472 544 -718 236 -235 458 -408 741 -577 148 -89 353
-193 361 -184 3 3 -47 240 -112 526 l-117 520 -76 26 c-113 40 -304 134 -406
199 -437 283 -722 696 -865 1260 -112 442 -128 979 -45 1505 9 57 15 104 13
107 -2 2 -34 -72 -70 -164z"/>
<path d="M7372 15997 c-39 -40 -90 -97 -113 -127 -61 -82 -146 -262 -176 -375
-23 -88 -26 -120 -27 -260 -1 -175 11 -247 66 -403 30 -85 59 -141 130 -245
113 -166 331 -319 537 -376 75 -21 258 -47 267 -38 3 3 -13 36 -36 74 -148
242 -342 727 -434 1083 -58 228 -126 601 -126 697 0 17 -4 34 -8 37 -5 3 -41
-27 -80 -67z"/>
<path d="M5293 10096 c69 -173 97 -239 151 -360 369 -824 995 -1757 1780
-2656 247 -283 685 -755 693 -747 2 3 -11 36 -30 73 -86 170 -639 1364 -1249
2694 -198 432 -362 787 -364 789 -2 2 -34 -3 -71 -10 -215 -42 -479 12 -771
157 -79 40 -141 67 -139 60z"/>
<path d="M9021 7333 c-61 -22 -169 -128 -243 -237 -77 -115 -208 -378 -208
-418 0 -28 288 -683 297 -674 2 1 12 57 23 122 42 256 111 448 185 513 152
133 344 -138 580 -823 60 -174 62 -177 69 -137 19 120 -112 821 -207 1111
-145 442 -300 612 -496 543z"/>
</g>
</svg>
