<?xml version="1.0" standalone="no"?>
<!DOCTYPE svg PUBLIC "-//W3C//DTD SVG 20010904//EN"
 "http://www.w3.org/TR/2001/REC-SVG-20010904/DTD/svg10.dtd">
<svg version="1.0" xmlns="http://www.w3.org/2000/svg"
 width="1800.000000pt" height="1657.000000pt" viewBox="0 0 1800.000000 1657.000000"
 preserveAspectRatio="xMidYMid meet">
<metadata>
Created by potrace 1.16, written by Peter Selinger 2001-2019
</metadata>
<g transform="translate(0.000000,1657.000000) scale(0.100000,-0.100000)"
fill="#000000" stroke="none">
<path d="M11200 16499 c-312 -68 -517 -212 -565 -396 -8 -32 -15 -79 -15 -105
0 -80 38 -251 95 -421 82 -249 84 -306 14 -357 -49 -35 -123 -59 -289 -95
-213 -46 -365 -95 -525 -169 -421 -197 -710 -521 -808 -906 l-22 -85 -395 -6
c-1088 -17 -2069 -148 -3149 -418 -482 -121 -828 -243 -1181 -414 -124 -60
-348 -183 -360 -197 -3 -3 -29 -21 -58 -39 -181 -114 -392 -317 -489 -469
-248 -388 -187 -806 172 -1168 301 -304 765 -556 1440 -782 168 -56 368 -115
515 -152 168 -41 160 -38 120 -62 -167 -100 -305 -199 -436 -313 -92 -79 -338
-325 -400 -400 -425 -509 -680 -1127 -734 -1780 -58 -705 121 -1404 518 -2015
64 -98 213 -289 286 -367 39 -42 89 -95 111 -118 149 -159 396 -351 630 -490
783 -465 1705 -578 2581 -315 189 57 326 112 521 211 465 235 876 591 1175
1019 169 242 321 546 411 825 74 228 194 715 237 960 70 404 85 610 77 1105
-5 309 -3 418 8 500 31 241 117 457 264 669 48 70 246 278 271 286 8 2 89 13
180 25 751 93 1505 280 2221 553 177 67 447 192 530 244 293 185 365 238 497
367 214 208 333 431 348 656 13 189 -48 402 -164 567 -351 503 -1274 939
-2564 1213 -131 27 -240 50 -243 50 -11 0 -5 47 12 94 22 59 89 124 229 221
242 166 358 282 405 403 16 42 23 87 27 169 4 99 2 121 -22 204 -54 189 -139
335 -326 559 -61 74 -123 148 -136 164 -22 27 -24 28 -24 9 0 -12 14 -109 31
-215 39 -248 38 -364 -5 -447 -27 -52 -117 -151 -181 -199 -16 -12 -70 -52
-120 -88 -49 -36 -101 -76 -114 -88 l-23 -21 5 110 c10 231 -32 542 -92 687
-37 88 -150 247 -151 212 -2 -96 -43 -421 -58 -464 -46 -130 -132 -268 -256
-410 -91 -104 -125 -127 -63 -43 82 112 120 219 139 383 14 132 3 262 -49 565
-29 171 -35 236 -36 350 0 244 32 339 165 480 47 50 99 106 116 126 l32 37
-31 6 c-59 11 -214 4 -299 -15z m21 -150 c-76 -77 -118 -206 -128 -391 -7
-129 -1 -188 53 -513 86 -518 48 -696 -207 -953 -84 -85 -143 -137 -359 -315
-61 -51 -149 -132 -256 -235 -11 -11 -69 -10 -326 3 -172 8 -419 18 -549 21
l-236 6 8 39 c60 266 260 540 519 712 167 110 438 224 640 268 369 80 428 105
485 204 49 85 42 183 -26 390 -79 237 -92 294 -93 395 -1 82 2 101 23 140 51
99 175 180 356 234 50 15 95 29 100 31 33 11 32 0 -4 -36z m1195 -1271 c70
-110 101 -174 135 -273 20 -58 24 -90 24 -185 0 -108 -2 -119 -30 -174 -34
-67 -130 -169 -221 -233 -32 -23 -96 -68 -141 -100 -180 -127 -243 -200 -270
-308 l-16 -67 -31 7 c-17 3 -55 9 -85 12 l-53 6 5 51 c44 418 45 425 70 478
13 30 39 71 58 92 31 36 131 116 144 116 9 0 142 107 198 160 65 60 131 162
152 232 11 41 15 86 13 153 -2 52 0 95 3 95 4 0 24 -28 45 -62z m-762 -448 c1
-230 -1 -253 -26 -370 -34 -158 -124 -398 -167 -442 -4 -4 -151 10 -326 32
-176 21 -367 42 -423 46 l-104 7 64 61 c90 86 175 159 292 250 226 175 362
309 479 472 51 71 142 250 156 309 22 84 24 83 39 -20 10 -67 15 -182 16 -345z
m-1949 -850 c1993 -65 3703 -458 4576 -1051 272 -184 468 -423 523 -636 20
-78 21 -231 1 -308 -37 -143 -126 -286 -265 -425 -259 -261 -666 -481 -1285
-697 -421 -147 -871 -263 -1304 -337 l-84 -14 -86 38 c-229 100 -447 150 -693
157 -171 6 -304 -9 -402 -43 -22 -8 -42 -12 -45 -8 -3 3 9 33 27 68 61 113 41
103 267 126 1233 127 2186 373 2675 690 124 81 244 202 290 294 32 64 35 78
35 155 0 75 -4 94 -31 151 -77 162 -228 288 -514 431 -499 248 -1257 439
-2225 559 -665 83 -1110 110 -1911 117 -706 6 -1199 -10 -1689 -57 -814 -77
-1356 -167 -1898 -314 -814 -221 -1275 -512 -1303 -822 -5 -59 -2 -79 20 -137
14 -37 39 -87 55 -111 44 -64 171 -178 268 -241 377 -246 1104 -472 1948 -605
198 -31 198 -31 189 -39 -18 -16 -245 -101 -459 -171 -121 -39 -258 -87 -305
-107 -69 -28 -94 -34 -130 -30 -60 7 -445 103 -570 142 -925 287 -1468 584
-1743 950 -194 259 -209 542 -42 810 55 88 196 241 295 320 174 139 423 284
680 397 859 379 2081 632 3485 723 520 34 1108 43 1650 25z m-1320 -942 c-85
-66 -226 -221 -291 -319 -134 -203 -190 -368 -229 -669 -50 -387 -130 -556
-350 -740 -143 -119 -335 -240 -383 -240 -34 0 -399 53 -552 81 -721 128
-1195 264 -1585 454 -163 80 -267 149 -349 231 -138 139 -140 250 -6 384 247
247 897 482 1780 645 280 51 542 87 975 135 230 25 770 63 985 68 l45 1 -40
-31z m3746 -243 c830 -175 1480 -462 1606 -709 34 -67 30 -146 -12 -206 -102
-148 -321 -283 -687 -425 -283 -110 -864 -255 -1283 -320 -377 -59 -747 -108
-779 -103 -27 5 35 39 153 85 354 140 524 287 596 518 21 64 28 115 35 252 13
229 38 356 85 433 47 78 145 177 223 228 34 22 59 42 55 45 -4 2 -54 12 -110
22 -57 11 -103 21 -103 24 0 3 23 28 50 55 28 28 60 65 71 83 11 18 22 33 24
33 2 0 36 -7 76 -15z"/>
<path d="M3410 3796 c0 -2 -65 -264 -144 -582 -79 -319 -170 -682 -201 -809
-31 -126 -59 -238 -61 -247 -5 -17 14 -18 304 -18 l309 0 32 128 c18 70 43
168 57 217 13 50 38 142 54 205 17 63 42 160 58 215 l27 100 12 -75 c12 -72
75 -508 94 -655 5 -38 12 -85 15 -103 l5 -32 182 2 181 3 64 110 c35 61 97
166 137 235 40 69 105 181 145 250 102 177 152 260 155 260 2 0 -3 -28 -11
-62 -8 -35 -35 -153 -60 -263 -43 -193 -81 -357 -109 -477 l-13 -58 291 0 292
0 64 263 c36 144 95 384 132 532 120 487 209 850 209 858 0 4 -180 7 -399 7
l-399 0 -33 -57 c-17 -32 -41 -74 -52 -93 -11 -19 -32 -57 -47 -85 -66 -121
-247 -448 -294 -530 l-51 -90 -8 50 c-4 28 -29 219 -55 425 l-47 375 -417 3
c-230 1 -418 0 -418 -2z"/>
<path d="M5920 3786 c0 -8 -45 -197 -100 -420 -55 -224 -145 -588 -200 -812
-55 -223 -100 -407 -100 -410 0 -2 152 -4 338 -4 l337 0 14 58 c13 58 141 579
302 1230 49 199 89 365 89 367 0 3 -153 5 -340 5 -290 0 -340 -2 -340 -14z"/>
<path d="M6810 2980 c-225 -451 -410 -825 -410 -830 0 -7 109 -9 323 -8 l322
3 312 624 c306 613 311 623 317 580 11 -88 37 -619 31 -629 -4 -6 -67 -9 -168
-8 -100 1 -162 -2 -162 -8 0 -5 77 -134 170 -287 l170 -277 308 0 307 0 0 33
c0 17 -4 104 -10 192 -5 88 -19 315 -30 505 -11 190 -27 458 -35 595 -8 138
-15 269 -15 293 l0 42 -510 0 -510 0 -410 -820z"/>
<path d="M8917 3793 c-3 -5 -12 -37 -20 -73 -24 -97 -142 -576 -272 -1102 -63
-257 -115 -470 -115 -473 0 -3 138 -4 307 -3 l307 3 28 105 c33 123 153 587
176 678 8 34 18 62 22 62 7 0 22 -95 60 -380 11 -80 30 -217 43 -305 l22 -160
182 -3 182 -2 42 72 c105 182 197 341 254 438 34 58 92 158 130 223 37 65 69
116 71 114 2 -2 -11 -73 -30 -158 -38 -170 -143 -631 -151 -666 l-5 -23 290 0
c159 0 290 1 290 3 0 1 92 372 205 825 113 453 205 825 205 828 0 2 -181 4
-402 4 l-403 0 -53 -98 c-29 -53 -75 -137 -103 -187 -28 -49 -102 -182 -163
-295 -62 -113 -122 -220 -133 -238 l-21 -33 -6 33 c-13 69 -96 745 -96 781 l0
37 -419 0 c-231 0 -422 -3 -424 -7z"/>
<path d="M11372 3582 c-30 -119 -121 -488 -203 -818 -82 -331 -149 -607 -149
-613 0 -8 90 -11 337 -9 l337 3 33 135 c18 74 56 230 84 345 28 116 104 425
170 688 65 263 119 480 119 483 0 2 -152 4 -337 4 l-338 0 -53 -218z"/>
<path d="M12801 2473 c-25 -92 -134 -163 -301 -198 -178 -37 -212 -53 -237
-113 -9 -21 -19 -86 -23 -152 -10 -163 -35 -210 -134 -256 -90 -41 -151 -44
-813 -44 l-632 0 -20 -67 c-11 -38 -34 -120 -51 -183 -17 -63 -40 -145 -51
-182 -10 -36 -19 -71 -19 -77 0 -8 69 -11 225 -11 124 0 225 -2 225 -4 0 -3
-25 -107 -55 -233 -31 -125 -67 -275 -81 -333 -14 -58 -50 -206 -80 -329 -30
-123 -54 -227 -54 -232 0 -5 140 -8 337 -7 l337 3 58 240 c32 132 69 287 83
345 13 58 49 204 79 325 l54 220 203 5 c233 7 303 21 366 75 61 52 83 109 109
279 25 169 39 216 84 280 41 61 87 97 189 148 212 107 301 217 288 358 -5 54
-47 162 -68 175 -4 3 -13 -11 -18 -32z"/>
<path d="M5265 1698 c-2 -7 -25 -98 -50 -203 -26 -104 -116 -468 -201 -808
-85 -341 -154 -623 -154 -628 0 -5 134 -9 315 -9 244 0 317 3 320 13 4 12 79
328 111 469 14 61 22 78 38 82 12 3 119 6 239 6 180 0 217 -2 217 -14 0 -8
-29 -132 -65 -275 -36 -144 -65 -266 -65 -271 0 -6 116 -10 314 -10 l315 0 14
52 c8 29 51 202 96 383 208 849 292 1191 297 1208 5 16 -13 17 -312 15 l-317
-3 -77 -315 -76 -315 -237 -3 c-162 -2 -237 1 -237 8 0 6 20 91 44 188 24 97
56 229 71 292 14 63 29 123 31 133 5 16 -14 17 -311 17 -244 0 -317 -3 -320
-12z"/>
<path d="M7281 1673 c-6 -21 -49 -195 -96 -388 -133 -543 -295 -1198 -301
-1218 -5 -16 32 -17 707 -15 l713 3 7 30 c7 30 75 285 85 318 5 16 -18 17
-386 17 l-392 0 5 23 c3 12 14 64 23 115 l18 92 393 0 392 0 15 53 c42 146 82
307 78 312 -3 3 -179 5 -390 5 -211 -1 -386 0 -387 2 -2 2 8 56 22 120 l26
118 395 2 396 3 17 65 c72 274 91 347 95 363 5 16 -33 17 -710 17 l-715 0 -10
-37z"/>
<path d="M8895 890 c-226 -451 -411 -825 -413 -830 -2 -6 114 -10 322 -10
l326 0 305 612 c168 336 309 616 314 621 5 5 11 -44 15 -115 4 -68 11 -195 16
-283 6 -88 11 -182 12 -210 l3 -50 -173 -5 -172 -5 111 -180 c61 -99 140 -226
176 -282 l65 -103 309 0 309 0 -4 33 c-3 17 -8 88 -11 157 -12 240 -73 1290
-81 1398 l-6 72 -506 0 -507 0 -410 -820z"/>
</g>
</svg>
