<?xml version="1.0" standalone="no"?>
<!DOCTYPE svg PUBLIC "-//W3C//DTD SVG 20010904//EN"
 "http://www.w3.org/TR/2001/REC-SVG-20010904/DTD/svg10.dtd">
<svg version="1.0" xmlns="http://www.w3.org/2000/svg"
 width="2400.000000pt" height="2600.000000pt" viewBox="0 0 2400.000000 2600.000000"
 preserveAspectRatio="xMidYMid meet">
<metadata>
Created by potrace 1.16, written by Peter Selinger 2001-2019
</metadata>
<g transform="translate(0.000000,2600.000000) scale(0.100000,-0.100000)"
fill="#000000" stroke="none">
<path d="M5410 25154 c-242 -29 -461 -77 -652 -143 -1301 -451 -2081 -1777
-1842 -3131 74 -420 256 -844 503 -1170 32 -41 61 -81 65 -88 4 -7 -15 -39
-52 -85 -154 -190 -390 -516 -565 -782 -958 -1457 -1562 -3148 -1742 -4880
-49 -478 -70 -1207 -46 -1672 80 -1573 485 -3087 1195 -4468 849 -1651 2060
-3017 3606 -4067 506 -344 1182 -721 1702 -948 l148 -65 -6 -30 c-11 -62 -19
-365 -13 -500 11 -217 60 -442 122 -550 l22 -39 -81 -81 c-89 -88 -137 -162
-154 -239 -6 -28 -23 -76 -38 -106 -23 -46 -27 -68 -27 -140 0 -75 4 -93 33
-154 85 -179 250 -349 589 -604 287 -216 472 -311 682 -347 98 -17 385 -20
564 -5 198 17 362 85 560 234 171 129 394 366 582 619 l100 135 100 13 c55 7
168 13 250 14 177 0 247 -17 294 -70 l28 -33 97 19 c227 43 490 128 692 223
434 206 573 483 369 734 -19 24 -35 47 -35 51 0 4 96 13 213 19 1569 91 3120
530 4499 1274 l157 85 24 -26 c81 -90 166 -235 207 -354 83 -245 143 -597 195
-1142 46 -474 95 -705 277 -1290 109 -350 178 -459 239 -375 35 47 50 140 64
395 26 461 30 835 10 1215 -13 248 -16 426 -12 635 6 304 19 438 58 585 25 98
30 208 10 264 -8 22 -40 68 -72 102 -32 35 -61 73 -63 86 -3 13 -12 62 -21
110 -8 48 -29 132 -45 187 -17 55 -30 111 -29 123 0 18 37 49 172 145 496 352
918 713 1403 1197 298 299 490 508 704 766 1225 1481 2030 3247 2339 5130 100
610 131 975 138 1645 5 494 -2 743 -33 1100 -234 2729 -1472 5255 -3484 7109
-1046 963 -2261 1708 -3595 2204 -801 297 -1604 493 -2469 602 -87 11 -166 25
-175 32 -9 7 -36 30 -61 51 -56 48 -189 131 -306 190 -243 124 -461 177 -722
177 -334 0 -645 -96 -1180 -364 l-149 -75 -195 -25 c-826 -109 -1666 -318
-2397 -595 -74 -28 -139 -51 -145 -50 -6 0 -47 48 -91 107 -112 149 -420 456
-567 566 -385 286 -780 452 -1265 532 -94 15 -593 28 -683 18z m7628 -952 c7
-5 22 -54 34 -110 18 -83 19 -104 8 -117 -7 -8 -58 -29 -114 -47 -138 -43
-207 -92 -253 -182 -31 -59 -22 -103 40 -194 31 -46 70 -118 88 -160 36 -89
52 -110 96 -128 79 -34 149 -4 230 97 137 171 165 190 177 122 9 -59 7 -299
-3 -326 -8 -21 -19 -26 -66 -32 -214 -26 -644 -156 -925 -279 -98 -43 -130
-47 -130 -18 -1 29 -36 96 -70 136 -27 30 -31 39 -19 46 7 5 25 6 39 3 14 -4
70 -7 125 -7 154 1 203 32 213 133 5 60 -8 87 -55 106 -34 15 -35 17 -31 58 3
23 19 64 37 91 35 56 41 113 17 171 -17 40 -42 55 -93 55 -76 -1 -178 -70
-245 -167 -16 -24 -33 -43 -38 -43 -14 0 -12 56 5 125 26 107 16 196 -25 241
-21 22 -21 22 -1 40 47 45 537 256 809 349 144 50 133 47 150 37z m-1195 -562
c-40 -93 -48 -105 -70 -108 -14 -2 -31 9 -52 35 -17 21 -27 39 -21 41 5 2 10
9 10 16 0 13 116 74 141 73 14 -1 13 -9 -8 -57z m2830 -15 c53 -40 97 -109 97
-149 0 -48 -29 -92 -113 -173 -221 -212 -682 -404 -1637 -683 -508 -149 -827
-289 -1150 -506 -134 -89 -188 -134 -382 -313 -222 -205 -403 -347 -838 -656
-146 -103 -317 -227 -380 -275 -192 -143 -274 -198 -366 -242 -87 -42 -91 -43
-194 -43 -85 0 -113 4 -145 20 -89 44 -48 101 140 197 153 78 292 163 480 296
252 177 622 464 890 691 426 361 803 613 1228 822 281 138 464 204 832 299
601 155 1058 382 1282 637 109 124 171 143 256 78z m-3266 -257 c12 -26 47
-73 77 -104 68 -68 72 -95 19 -123 -14 -7 -46 -9 -92 -5 -86 8 -111 2 -156
-38 -46 -40 -65 -77 -65 -128 0 -53 34 -90 82 -90 94 0 142 -38 185 -144 33
-80 57 -102 133 -117 101 -20 169 14 235 117 47 73 70 94 104 94 36 0 51 -18
58 -68 9 -65 -16 -100 -104 -151 -220 -128 -704 -488 -928 -692 -20 -17 -21
-16 -88 46 -61 57 -68 67 -65 97 4 39 12 44 173 93 147 46 276 104 298 136 39
55 12 123 -68 175 -71 45 -85 73 -85 174 0 125 -27 170 -103 170 -47 0 -138
-48 -164 -88 -12 -18 -27 -65 -33 -104 -9 -52 -19 -78 -37 -96 -32 -32 -41
-21 -52 63 -7 59 -12 72 -39 96 -17 16 -57 35 -89 44 -95 26 -107 30 -105 38
0 5 63 61 139 124 255 213 700 535 733 530 8 -1 24 -23 37 -49z m-1310 -1121
c17 -24 48 -49 84 -67 68 -35 99 -71 99 -115 0 -57 -46 -78 -197 -89 l-81 -6
-22 57 c-33 89 -34 106 -10 154 32 61 67 106 85 106 8 0 27 -18 42 -40z m2531
-12 c36 -50 115 -116 173 -146 68 -34 127 -42 199 -25 88 21 164 21 185 -1 25
-24 32 -49 50 -173 20 -134 47 -225 78 -261 12 -15 52 -45 89 -69 38 -23 77
-53 88 -67 25 -32 26 -96 4 -173 -9 -34 -19 -130 -24 -245 -7 -150 -14 -211
-34 -288 -67 -259 -239 -596 -473 -922 -43 -60 -95 -132 -115 -160 -19 -27
-42 -67 -49 -88 -13 -37 -13 -40 11 -59 16 -13 31 -17 44 -12 12 3 136 9 277
13 l256 6 43 39 c55 50 96 66 168 66 l59 0 7 82 c8 102 36 230 72 334 62 183
243 501 340 598 199 201 432 170 552 -73 37 -74 37 -77 37 -195 0 -101 -4
-133 -24 -191 -59 -174 -169 -344 -324 -499 -99 -100 -165 -184 -205 -261 -22
-43 -27 -68 -33 -175 -8 -156 -20 -192 -140 -409 -103 -187 -173 -285 -265
-370 -136 -124 -264 -193 -484 -260 -155 -48 -322 -109 -429 -157 -40 -19 -77
-34 -80 -34 -4 0 -4 30 1 68 9 70 2 158 -13 167 -4 3 -19 -11 -32 -32 -254
-411 -291 -462 -387 -523 -73 -47 -175 -79 -323 -100 -344 -51 -540 5 -685
195 -61 81 -144 256 -150 316 -4 45 -3 48 22 55 15 3 55 -1 91 -10 70 -17 190
-22 200 -7 17 29 -223 141 -515 240 -280 94 -359 129 -492 217 -181 118 -341
305 -417 488 -91 218 -46 292 119 197 36 -20 184 -107 330 -192 427 -250 809
-453 909 -483 69 -20 198 -21 276 -1 92 23 209 86 325 173 110 84 446 393 492
454 15 19 41 41 57 48 26 11 34 10 54 -4 83 -60 97 -68 117 -61 45 14 64 113
35 183 -57 135 -261 216 -610 242 -220 16 -365 51 -430 101 -14 12 -59 65
-100 118 -131 171 -165 201 -224 201 -84 -1 -79 -41 17 -143 80 -85 107 -127
121 -185 19 -86 -25 -157 -113 -182 -28 -8 -117 -13 -233 -14 -214 -2 -265
-13 -379 -87 -119 -77 -251 -101 -339 -60 -74 33 -155 154 -155 231 1 111 87
185 304 260 186 64 266 112 399 239 261 249 389 562 333 812 -28 124 -105 240
-149 223 -24 -9 -21 -23 13 -85 62 -113 94 -256 78 -355 -16 -105 -102 -255
-236 -415 -63 -75 -86 -89 -109 -66 -14 13 -14 25 2 109 23 123 24 295 2 369
-24 80 -73 147 -143 195 l-60 40 40 29 c53 38 217 170 616 495 506 413 621
499 828 619 133 77 308 140 392 140 30 0 40 -6 68 -44z m-1980 -368 c29 -30
53 -101 55 -162 l2 -50 -146 -147 -145 -147 -66 52 c-37 29 -64 54 -62 56 2 2
-3 12 -11 21 -14 15 -10 18 45 35 34 10 77 33 100 52 42 36 93 131 125 233 10
30 22 61 28 68 15 19 51 14 75 -11z m7797 -97 c234 -26 433 -132 555 -295 112
-149 218 -396 223 -519 l2 -50 -195 -38 c-107 -20 -196 -35 -197 -34 -2 1 -9
36 -17 77 -34 177 -95 263 -236 332 -100 49 -176 67 -281 67 -202 0 -378 -111
-465 -293 -97 -206 -55 -437 111 -602 102 -102 254 -175 362 -175 28 0 33 -4
33 -23 0 -42 -41 -421 -46 -426 -8 -9 -174 29 -268 60 -310 103 -556 306 -649
536 -47 116 -60 189 -60 333 0 89 6 162 17 215 53 244 185 463 369 610 174
139 360 207 637 233 8 1 56 -3 105 -8z m-3585 -667 c854 -328 1652 -810 2355
-1422 157 -137 495 -471 649 -641 1112 -1231 1803 -2768 1985 -4415 157 -1425
-68 -2842 -659 -4139 l-32 -69 -25 44 c-94 165 -264 270 -417 256 -48 -4 -84
-17 -171 -62 -60 -30 -119 -55 -130 -55 -20 0 -179 58 -457 168 l-127 50 -78
-86 c-43 -47 -77 -92 -75 -99 2 -7 -74 -88 -168 -180 -94 -92 -178 -179 -186
-194 -19 -38 -18 -66 5 -79 48 -25 63 -15 242 169 247 253 282 267 496 195
217 -73 262 -110 304 -247 16 -52 19 -95 19 -272 0 -138 5 -238 15 -292 43
-243 39 -539 -10 -723 -39 -147 -166 -542 -181 -567 -18 -29 -62 -47 -145 -62
-92 -16 -137 -14 -186 9 -112 51 -141 254 -77 555 54 261 54 266 -6 540 -38
176 -57 240 -81 267 l-20 23 6 -23 c12 -44 -14 -83 -74 -109 -210 -93 -409
-321 -572 -657 -64 -131 -71 -151 -62 -175 6 -14 23 -54 38 -89 14 -34 46
-139 70 -234 44 -166 45 -175 45 -324 l0 -152 -33 -44 c-18 -24 -54 -57 -80
-75 -85 -57 -224 -68 -274 -21 -28 26 -37 52 -67 205 -28 141 -53 201 -155
362 -114 182 -126 212 -126 306 1 62 8 102 33 178 48 145 62 246 64 469 3 233
-2 221 136 315 187 127 321 234 351 277 43 63 60 129 41 163 -35 62 -69 54
-178 -42 -92 -81 -108 -78 -166 30 -25 47 -46 96 -46 110 0 42 43 72 128 91
350 76 692 286 848 519 76 113 79 148 18 184 -43 25 -73 88 -74 151 0 55 -22
135 -83 300 -53 147 -85 259 -122 429 -51 236 -118 404 -186 466 -22 19 -43
35 -49 35 -21 0 -74 200 -141 529 -111 550 -208 1158 -229 1441 -16 207 -19
226 -41 254 -27 34 -73 34 -150 0 -33 -15 -61 -25 -63 -23 -3 2 6 67 19 144
13 77 38 250 55 385 17 135 55 418 85 630 49 349 73 546 90 715 5 58 3 66 -46
165 -70 145 -139 311 -192 465 -25 72 -61 168 -82 215 -108 253 -307 575 -449
728 -78 84 -138 114 -237 120 -88 5 -148 -9 -279 -69 -48 -21 -116 -46 -151
-56 -77 -20 -214 -23 -249 -4 -14 7 -65 54 -113 105 l-89 91 -20 -25 c-26 -32
-19 -90 21 -176 39 -84 91 -138 169 -176 61 -30 71 -32 166 -31 124 1 229 30
397 109 121 57 153 63 197 40 106 -56 192 -221 634 -1215 l180 -404 -26 -206
c-38 -293 -158 -1099 -221 -1478 -57 -346 -58 -376 -12 -408 43 -30 78 -20
137 41 61 62 101 87 124 78 21 -8 24 -25 30 -194 5 -155 30 -312 127 -800 93
-469 160 -762 211 -920 38 -119 35 -177 -9 -221 -32 -33 -220 -107 -508 -202
-379 -124 -485 -149 -563 -127 -78 20 -101 52 -230 313 -119 239 -294 559
-490 896 -118 202 -131 243 -114 361 17 114 74 280 187 545 56 132 105 254
109 270 12 57 -75 491 -165 822 -72 266 -121 394 -156 407 -24 10 -24 11 -261
-575 -162 -400 -174 -425 -242 -510 -68 -85 -140 -144 -226 -186 -262 -127
-485 94 -569 562 -23 123 -31 422 -16 581 64 689 316 1484 738 2324 107 213
212 394 271 468 37 46 81 124 82 143 0 26 -29 45 -151 96 -187 80 -392 200
-527 311 l-45 36 6 81 c6 100 53 248 104 333 21 34 91 124 157 200 130 153
174 213 182 251 4 15 40 83 81 152 94 161 126 238 153 369 37 176 15 335 -66
490 -61 118 -171 230 -281 287 -60 32 -57 19 -47 195 l7 106 161 -55 c89 -30
226 -79 306 -110z m-5348 55 c-38 -46 -92 -115 -119 -154 -58 -81 -173 -269
-173 -282 0 -23 125 -194 179 -245 82 -79 113 -90 236 -90 80 1 117 6 185 28
108 34 226 95 315 163 54 40 77 52 100 50 26 -3 30 -7 33 -36 4 -37 -28 -141
-66 -217 -33 -66 -74 -126 -141 -205 -121 -144 -261 -391 -295 -523 -8 -33
-17 -61 -20 -64 -3 -3 -108 -23 -233 -44 -453 -77 -643 -112 -905 -165 -446
-90 -475 -79 -387 153 52 140 89 280 96 368 5 66 4 72 -22 103 -15 18 -51 45
-79 60 -49 26 -57 27 -201 27 -129 0 -160 -3 -225 -23 -87 -28 -176 -71 -242
-118 -42 -29 -50 -32 -76 -22 -68 26 -86 -13 -79 -177 6 -140 39 -369 67 -473
25 -92 70 -180 112 -222 77 -78 166 -87 367 -40 169 40 433 82 1186 190 347
49 638 92 648 94 22 5 21 6 36 -107 57 -434 446 -777 985 -870 48 -9 99 -23
112 -32 39 -25 54 -71 43 -129 -5 -27 -11 -51 -13 -54 -10 -9 -134 25 -404
109 -325 102 -362 107 -451 63 -54 -27 -115 -93 -151 -163 -77 -153 -119 -482
-100 -797 24 -394 88 -673 180 -778 43 -49 82 -68 139 -68 54 1 95 16 276 103
72 34 291 135 488 225 381 173 427 200 518 305 l51 59 -32 0 c-21 0 -65 -18
-120 -50 -86 -49 -294 -143 -346 -156 -14 -4 -29 -2 -33 3 -3 6 -29 22 -58 37
-104 52 -154 117 -129 167 17 34 43 34 130 -1 86 -34 149 -38 186 -14 60 40
64 75 18 147 l-31 49 17 71 c29 128 19 180 -44 212 -60 31 -106 15 -197 -67
-50 -45 -57 -49 -64 -32 -10 27 -1 67 34 156 26 69 28 81 17 108 -15 35 -76
72 -124 73 -21 0 -46 -11 -79 -36 -27 -20 -52 -37 -56 -37 -4 0 -22 11 -41 25
-70 52 -163 55 -200 8 -27 -35 -25 -65 10 -161 17 -46 30 -84 30 -87 0 -2 -7
-11 -16 -19 -26 -27 -63 -18 -123 29 -69 55 -101 58 -141 15 -36 -39 -64 -121
-56 -163 4 -18 21 -59 38 -92 29 -54 32 -69 33 -150 1 -113 23 -183 71 -225
19 -16 40 -30 47 -30 46 0 94 28 165 94 78 73 125 97 146 76 11 -11 10 -201
-3 -295 -6 -45 -5 -52 8 -48 27 7 -219 -118 -291 -148 -66 -29 -68 -29 -108
-13 -112 45 -205 249 -231 508 -21 204 10 592 67 846 29 129 42 159 80 189 60
47 142 38 382 -40 172 -56 290 -83 437 -99 55 -6 102 -14 106 -18 3 -4 11 -22
18 -41 38 -114 236 -342 399 -458 90 -64 98 -73 114 -121 10 -29 21 -90 24
-137 7 -81 6 -85 -13 -85 -24 0 -33 -32 -33 -114 0 -49 -4 -55 -81 -151 -182
-227 -358 -503 -480 -752 -80 -166 -165 -311 -259 -444 -67 -93 -181 -238
-209 -263 -20 -18 -21 -18 -47 13 -66 79 -288 151 -765 251 -105 22 -195 42
-200 46 -13 8 -37 -13 -54 -47 -8 -14 -37 -112 -64 -215 -63 -239 -98 -338
-173 -491 -102 -207 -246 -410 -413 -579 -107 -108 -172 -141 -239 -123 -52
14 -82 44 -218 212 -211 262 -378 459 -459 543 -44 45 -79 90 -79 100 0 25 21
55 107 157 127 150 404 509 476 617 83 125 170 297 222 435 43 117 59 139 87
124 10 -6 52 -61 92 -122 162 -250 418 -515 535 -555 55 -19 98 -15 115 10 26
37 18 51 -55 103 -210 148 -452 438 -609 730 -29 52 -55 95 -59 95 -4 0 -15
-14 -25 -31 -22 -38 -145 -169 -158 -169 -5 0 -18 21 -29 46 -74 167 -135 619
-158 1174 -13 302 -36 375 -158 502 -75 77 -148 128 -328 228 -158 88 -219
132 -307 222 -176 180 -338 556 -387 898 -18 124 -19 294 -1 315 22 27 345
267 500 371 479 324 1053 622 1575 819 119 45 377 134 388 135 4 0 -23 -37
-61 -82z m1092 -250 c3 -7 7 -26 11 -41 5 -25 9 -28 34 -22 39 8 106 -21 132
-56 11 -16 23 -45 26 -65 6 -34 3 -39 -59 -94 -114 -103 -168 -238 -168 -421
0 -114 -6 -124 -78 -117 -190 18 -219 184 -96 559 25 75 58 158 74 183 41 63
114 107 124 74z m10047 -1260 c238 -332 443 -617 456 -635 l24 -31 -171 -115
-170 -115 -188 261 c-384 535 -417 580 -425 580 -5 -1 -61 -38 -126 -83 l-119
-82 255 -361 c141 -199 271 -383 290 -409 l34 -47 -171 -114 -170 -115 -278
413 -278 413 -119 -84 c-65 -46 -123 -88 -128 -93 -8 -8 137 -230 429 -657
l83 -121 -166 -113 c-115 -78 -170 -110 -179 -104 -8 5 -195 266 -418 579
-309 436 -402 573 -393 582 21 20 1480 1053 1488 1053 4 0 202 -271 440 -602z
m-10342 398 l41 -42 -45 -44 c-64 -63 -97 -137 -103 -231 l-4 -75 -93 -23
c-101 -26 -135 -23 -172 11 -29 28 -30 89 -3 153 42 98 151 247 249 342 l45
43 22 -46 c12 -26 41 -65 63 -88z m-2239 -119 c71 -25 75 -79 24 -339 -19
-101 -38 -225 -41 -276 -5 -80 -4 -95 12 -112 10 -11 29 -20 42 -20 39 0 26
-20 -30 -45 -82 -36 -155 -55 -232 -61 -61 -4 -75 -2 -110 18 -99 58 -162 252
-185 569 -7 85 -14 157 -17 162 -5 8 93 55 161 77 112 36 308 50 376 27z
m-1090 -147 c43 -43 62 -125 80 -355 18 -215 46 -329 120 -478 126 -251 321
-442 681 -665 201 -124 223 -174 239 -561 16 -378 36 -554 86 -752 50 -200
125 -374 207 -482 81 -106 71 -178 -50 -361 -79 -118 -226 -274 -343 -362
-162 -123 -358 -203 -496 -204 -186 0 -380 112 -455 265 -58 118 -48 274 26
427 20 42 39 93 42 114 l6 38 -51 -51 c-173 -173 -459 -174 -633 -2 -131 129
-264 345 -278 450 -10 79 3 132 58 245 78 158 177 234 250 192 34 -19 33 -55
-4 -173 -22 -73 -28 -110 -29 -195 -1 -96 1 -109 26 -155 34 -65 121 -161 177
-197 91 -57 203 -23 336 102 65 62 78 70 113 70 53 0 75 -28 97 -120 51 -212
157 -376 305 -475 130 -86 255 -108 355 -61 58 27 178 127 206 172 10 17 19
42 19 54 0 21 -3 22 -47 16 -25 -3 -87 -25 -137 -49 -85 -39 -97 -42 -176 -42
-76 0 -93 4 -152 33 -146 72 -252 226 -284 412 -21 121 -14 512 10 630 9 41
16 93 16 115 l-1 40 -16 -29 c-8 -16 -30 -66 -49 -112 -50 -124 -96 -210 -174
-327 -81 -122 -216 -269 -271 -298 -85 -43 -174 -13 -217 73 -29 59 -28 86 7
166 16 37 34 102 40 144 17 119 148 656 174 712 33 72 70 111 131 141 81 40
380 87 670 105 163 10 212 23 200 54 -17 43 -58 51 -347 66 -222 11 -238 16
-349 114 -87 75 -134 143 -238 336 -39 74 -107 187 -150 251 -93 138 -145 238
-166 319 -28 111 8 300 81 426 34 59 142 168 209 212 59 38 115 43 146 12z
m4647 -155 c66 -46 209 -74 438 -85 263 -12 357 -50 340 -137 -6 -33 -37 -68
-218 -249 -234 -233 -309 -293 -442 -359 -110 -55 -186 -75 -282 -75 -91 0
-164 23 -293 92 -52 29 -155 82 -228 120 -234 119 -515 298 -529 335 -4 9 2
22 13 30 15 12 46 14 164 9 167 -8 185 -2 206 59 34 103 129 128 394 106 169
-14 280 18 355 101 25 28 45 54 45 59 0 13 13 11 37 -6z m-1432 -77 c4 -18 16
-59 27 -91 26 -76 17 -85 -53 -52 -30 14 -72 25 -96 25 -23 0 -183 -22 -355
-49 -652 -103 -995 -153 -1067 -154 -104 -3 -104 15 1 47 92 28 131 36 853
166 275 49 538 100 585 114 47 13 88 25 92 25 3 1 10 -14 13 -31z m-5900 -441
c418 -242 764 -443 768 -447 8 -7 -258 -438 -292 -472 -14 -15 -72 -17 -568
-24 -304 -3 -588 -9 -632 -13 l-80 -6 475 -274 c261 -151 477 -278 479 -281 2
-4 -48 -98 -113 -209 -84 -146 -121 -201 -132 -198 -34 10 -1545 888 -1547
900 -2 6 41 98 95 202 l97 190 60 6 c33 4 361 12 728 19 367 7 670 16 672 20
2 4 -235 157 -526 340 -292 184 -532 336 -533 340 -1 3 53 87 121 188 117 172
125 182 146 171 12 -7 364 -210 782 -452z m2140 87 c26 -108 76 -256 107 -319
11 -22 89 -143 173 -270 84 -126 156 -240 160 -252 6 -20 3 -23 -23 -23 -49 0
-110 -52 -344 -294 -299 -310 -303 -318 -284 -561 11 -130 2 -159 -83 -287
-92 -137 -113 -192 -113 -288 0 -121 47 -228 204 -467 158 -242 283 -322 560
-358 26 -3 54 -12 62 -20 7 -8 16 -42 20 -77 18 -153 77 -260 225 -408 122
-121 191 -162 322 -188 72 -14 86 -14 161 1 45 9 84 14 86 12 7 -7 -20 -43
-117 -155 -50 -58 -91 -108 -91 -111 0 -4 15 -13 33 -20 67 -28 241 -154 320
-232 45 -45 118 -129 161 -187 167 -221 449 -515 570 -595 68 -46 60 -48 211
69 128 101 157 108 235 56 61 -40 180 -159 180 -179 0 -30 -29 -59 -188 -187
-494 -401 -831 -741 -1083 -1094 -321 -449 -467 -924 -298 -968 18 -4 56 -5
83 -1 101 15 113 12 163 -33 57 -53 94 -108 218 -323 53 -93 110 -185 125
-204 l27 -34 -18 -47 c-26 -69 -42 -203 -34 -300 22 -292 113 -603 376 -1284
252 -650 335 -883 415 -1156 194 -665 371 -1056 640 -1417 46 -61 84 -114 84
-117 0 -10 -221 -76 -306 -91 -103 -18 -146 -19 -216 -4 -105 23 -161 69 -259
214 -30 44 -89 115 -131 157 -184 184 -388 218 -694 117 l-61 -20 -51 35
c-120 80 -273 68 -381 -29 l-41 -37 -79 57 c-204 147 -511 396 -746 604 -1431
1273 -2354 3071 -2565 4996 -34 314 -44 511 -44 860 0 350 11 549 44 860 176
1605 846 3128 1911 4340 131 148 340 367 346 362 2 -3 14 -49 28 -103z m7978
-717 c158 -77 287 -142 287 -143 0 -1 -47 -80 -104 -176 -152 -255 -310 -547
-471 -868 -163 -326 -170 -340 -260 -590 -261 -724 -348 -1362 -250 -1847 26
-126 29 -150 19 -141 -3 3 -20 -8 -37 -24 -56 -53 -143 -104 -209 -123 -69
-19 -130 -22 -283 -10 -94 6 -103 5 -145 -17 -35 -19 -52 -37 -77 -85 -38 -74
-52 -171 -33 -229 18 -54 103 -135 181 -172 36 -17 74 -41 84 -53 19 -20 19
-21 1 -35 -20 -14 -46 -12 -109 12 -20 8 -60 14 -87 14 -65 0 -106 -35 -148
-127 -101 -220 -71 -331 103 -374 117 -28 130 -47 115 -161 -23 -190 -6 -303
54 -356 61 -54 136 -53 238 0 99 52 213 180 280 312 82 163 116 176 132 51 9
-76 -7 -148 -68 -302 -88 -221 -80 -240 86 -229 151 10 221 42 261 121 48 95
117 343 132 470 12 103 35 127 134 138 l44 5 -7 -46 c-39 -283 -49 -725 -21
-937 40 -302 89 -421 346 -842 82 -134 167 -276 189 -317 91 -166 131 -337 97
-419 -29 -69 -100 -80 -322 -51 -126 16 -182 14 -360 -13 -137 -20 -455 -90
-585 -128 -13 -4 -15 12 -16 98 -1 65 -10 140 -25 207 -29 131 -31 193 -7 198
28 5 87 -28 163 -91 126 -106 221 -147 341 -149 118 -1 228 63 275 158 37 78
24 133 -76 309 -57 102 -60 150 -14 263 61 151 45 294 -45 388 -83 86 -147 50
-327 -188 -109 -144 -166 -188 -183 -142 -26 67 26 166 138 269 175 158 205
252 113 352 -54 58 -107 84 -184 91 -96 7 -181 -24 -329 -124 -87 -59 -137
-85 -174 -93 -68 -15 -74 -14 -166 10 -106 29 -197 29 -250 2 -119 -62 -216
-272 -163 -354 9 -13 54 -45 100 -69 170 -92 304 -256 225 -276 -28 -7 -129
12 -166 31 -14 8 -50 35 -80 61 -114 98 -180 123 -267 104 -98 -22 -155 -115
-155 -253 1 -95 11 -119 86 -197 79 -81 86 -107 53 -186 -37 -88 -41 -117 -23
-178 22 -75 105 -164 192 -207 61 -30 67 -31 107 -19 23 7 62 24 87 38 56 33
191 162 267 254 65 80 100 103 137 88 35 -13 40 -42 22 -127 -9 -39 -20 -122
-26 -185 -7 -62 -15 -127 -20 -145 -6 -27 -5 -31 9 -26 9 4 14 3 11 0 -4 -4
-87 -34 -185 -68 -535 -182 -1180 -478 -1671 -764 -179 -105 -514 -325 -639
-420 -101 -76 -132 -90 -178 -81 -55 11 -104 55 -230 205 -142 171 -277 314
-321 340 -17 10 -55 21 -85 24 -66 8 -95 26 -120 75 -75 147 -123 600 -92 874
19 169 69 392 125 563 94 283 185 476 387 814 366 617 622 1168 819 1766 130
394 209 583 261 631 37 33 157 76 227 82 121 10 134 -48 48 -211 -109 -204
-145 -331 -112 -395 24 -47 57 -51 116 -14 75 47 79 47 140 1 64 -49 152 -92
178 -87 12 2 19 17 24 53 39 276 56 348 90 384 27 30 61 10 103 -58 54 -90
107 -127 193 -138 53 -6 151 11 197 34 111 56 144 166 106 347 -26 122 -26
147 -2 194 25 49 58 78 161 144 88 57 163 129 180 174 6 14 10 43 10 65 0 32
-7 47 -41 84 -70 76 -133 81 -236 18 -32 -20 -80 -46 -108 -59 -56 -27 -125
-32 -125 -10 0 32 74 117 181 209 63 55 126 117 142 139 67 100 12 227 -134
311 -21 12 -39 27 -39 32 0 6 51 64 113 129 69 74 143 166 192 240 80 121 127
166 171 166 12 0 60 -18 107 -41 75 -36 95 -41 156 -41 95 -1 160 31 238 116
135 148 218 375 338 926 63 294 68 311 130 464 l47 115 -44 68 c-25 37 -68 94
-97 126 -43 47 -59 57 -85 57 -99 0 -65 107 82 260 86 89 90 92 123 85 19 -3
163 -70 322 -148z m-7457 -256 c52 -23 84 -64 84 -106 0 -36 -8 -40 -106 -68
-72 -21 -130 -53 -151 -83 -41 -59 -63 -76 -91 -69 -15 3 -38 17 -51 30 -58
57 -11 157 97 210 33 17 74 42 89 56 31 29 62 48 78 48 6 1 28 -8 51 -18z
m6910 -228 c-11 -199 -26 -312 -61 -458 -70 -292 -206 -717 -258 -806 -111
-189 -283 -197 -554 -27 -45 29 -84 60 -86 70 -4 12 8 29 36 53 39 34 134 85
156 85 7 0 10 54 8 158 -2 184 2 190 71 99 52 -69 89 -90 137 -81 46 8 81 37
107 87 18 34 22 61 23 142 1 55 3 105 4 111 0 7 18 19 39 27 72 29 102 83 78
141 -33 79 -126 97 -232 45 -98 -47 -114 -17 -38 71 39 46 45 58 40 84 -9 45
-38 79 -78 93 -29 9 -48 9 -99 -3 -48 -12 -73 -13 -99 -5 -44 13 -124 71 -113
81 14 13 229 78 331 100 157 34 287 48 446 49 l149 1 -7 -117z m7770 -181 c56
-125 98 -230 94 -235 -3 -4 -257 -112 -563 -241 -307 -128 -560 -235 -563
-238 -3 -3 68 -168 157 -367 89 -199 160 -363 158 -364 -27 -20 -485 -225
-490 -219 -4 4 -122 272 -264 597 -199 457 -254 592 -243 598 30 19 1603 703
1608 699 3 -2 50 -105 106 -230z m-8847 72 c3 2 7 -14 7 -37 0 -23 4 -78 8
-123 6 -56 5 -83 -2 -88 -6 -4 -33 5 -60 19 -93 48 -160 46 -192 -8 -24 -39
-25 -68 -4 -124 21 -55 12 -86 -31 -113 -49 -30 -69 -63 -61 -101 12 -61 73
-119 125 -119 11 0 54 18 96 40 83 44 109 48 143 24 28 -19 28 -41 -3 -156
-14 -51 -28 -123 -31 -160 -4 -37 -12 -69 -18 -71 -6 -2 -56 22 -111 54 -55
32 -167 88 -250 125 -255 114 -291 148 -283 264 9 131 126 272 343 416 135 89
308 180 313 164 2 -5 7 -8 11 -6z m-6190 -105 c31 -30 51 -59 51 -72 0 -26
-41 -180 -76 -289 -26 -80 -65 -128 -104 -128 -30 0 -74 45 -105 107 -38 76
-41 183 -8 255 39 86 129 178 174 178 9 0 39 -23 68 -51z m5518 -321 c-3 -7
-40 -100 -82 -206 -43 -107 -87 -202 -98 -213 -57 -53 -195 -17 -171 44 11 29
-14 55 -65 67 -78 19 -83 28 -70 151 11 110 25 145 62 154 22 5 122 9 321 13
83 2 107 -1 103 -10z m-8992 -347 c264 -70 502 -267 625 -516 78 -159 95 -237
94 -440 -1 -155 -3 -178 -28 -260 -221 -726 -1108 -953 -1639 -420 -301 302
-370 766 -172 1142 139 264 373 440 676 508 95 22 339 14 444 -14z m9297 -227
c428 -276 468 -307 468 -360 0 -14 -6 -37 -14 -52 -29 -54 -1162 -1150 -1536
-1485 -80 -71 -85 -75 -93 -54 -96 260 -209 553 -258 667 -36 83 -63 160 -63
180 -1 69 151 349 317 585 89 126 311 421 346 459 50 55 93 66 242 63 127 -2
136 -1 179 23 24 14 59 45 77 70 55 75 50 72 88 56 18 -8 130 -76 247 -152z
m9852 -726 c10 -70 118 -1549 115 -1552 -5 -4 -473 -35 -477 -31 -1 1 -12 105
-24 231 -11 126 -21 230 -22 231 -1 1 -244 -25 -541 -57 -296 -33 -541 -57
-544 -55 -5 5 -60 437 -56 442 1 2 243 32 539 67 296 36 540 67 543 70 3 2 -3
147 -12 321 -9 175 -13 320 -10 323 4 4 111 16 238 28 128 12 235 22 239 23 4
0 9 -18 12 -41z m-11461 -520 c18 -15 85 -154 142 -298 60 -153 122 -346 165
-513 l39 -155 -115 -339 c-64 -186 -131 -393 -149 -460 -42 -152 -74 -225
-190 -433 -50 -91 -193 -365 -317 -610 -125 -245 -285 -557 -357 -695 -239
-456 -359 -784 -407 -1110 -33 -222 -6 -628 60 -924 29 -129 32 -190 11 -230
-17 -34 -349 -331 -370 -331 -24 0 -42 39 -80 175 -47 169 -94 292 -149 385
-38 66 -137 210 -526 770 -90 129 -93 137 -91 184 5 120 102 197 189 152 15
-8 59 -39 97 -70 142 -114 229 -106 359 35 58 63 86 127 86 199 0 20 -14 86
-31 146 -43 152 -42 205 7 291 87 156 94 173 94 239 0 74 -24 136 -70 179 -26
25 -40 30 -79 30 -83 0 -182 -64 -366 -236 -55 -52 -114 -104 -132 -117 -34
-24 -72 -29 -74 -9 -5 58 22 129 102 264 70 118 92 182 79 237 -12 55 -34 81
-91 110 -66 33 -166 35 -260 7 -97 -29 -140 -33 -210 -21 -66 12 -123 37 -175
76 -39 29 -38 55 7 121 142 208 298 377 592 641 l47 42 33 -16 c46 -25 168
-30 243 -10 73 19 114 13 146 -21 21 -22 23 -34 23 -121 0 -53 -7 -206 -14
-340 -9 -146 -11 -246 -5 -252 7 -7 239 -30 309 -30 19 0 20 7 20 258 1 241 2
260 23 313 28 72 85 139 118 139 28 0 50 -30 59 -80 10 -54 56 -132 94 -157
83 -56 191 -56 306 1 124 61 216 175 395 486 120 209 143 291 102 367 -39 73
-106 98 -241 90 -53 -2 -102 -3 -108 0 -33 12 -8 50 111 167 76 74 125 131
128 146 13 75 -47 141 -174 190 -82 32 -227 70 -266 70 -16 0 -21 4 -15 13 4
6 8 15 8 18 0 3 52 64 117 135 251 278 448 531 568 728 114 186 137 208 183
174z m-1223 -100 c47 -11 193 -50 325 -86 198 -54 258 -67 343 -71 157 -9 160
-35 29 -231 -102 -152 -175 -239 -351 -418 -201 -204 -342 -333 -520 -476
-115 -92 -119 -95 -145 -81 -38 20 -114 101 -158 172 -73 113 -73 99 6 264
129 271 237 567 307 842 26 103 37 122 64 111 8 -3 53 -15 100 -26z m5449
-348 c24 -13 36 -44 66 -182 14 -65 41 -166 60 -226 85 -268 77 -336 -99 -847
-36 -104 -74 -236 -86 -292 -24 -121 -26 -262 -5 -352 18 -73 10 -58 453 -889
l322 -603 10 -87 c46 -370 127 -755 217 -1037 75 -233 102 -258 392 -356 l132
-44 10 -40 c17 -69 50 -144 90 -205 l38 -59 -43 -25 c-100 -59 -173 -165 -196
-285 -5 -30 -10 -117 -10 -195 0 -212 -23 -377 -76 -552 -31 -105 -32 -211 -4
-288 13 -32 47 -86 87 -133 109 -130 152 -237 188 -467 31 -204 71 -271 180
-301 88 -23 115 -55 115 -133 0 -31 -4 -62 -8 -68 -4 -6 -61 -51 -127 -100
-864 -650 -1848 -1113 -2905 -1368 -212 -51 -358 -81 -365 -74 -3 2 26 89 65
191 125 337 238 706 329 1080 93 378 181 618 544 1484 75 177 150 366 167 419
100 312 256 1058 305 1459 11 86 26 155 45 205 61 161 74 298 40 435 -29 122
-82 242 -273 618 -174 343 -220 454 -262 632 -72 309 -57 706 42 1150 65 293
130 508 337 1107 111 325 142 397 178 422 26 19 25 19 47 6z m-12869 -895 l0
-266 629 7 628 7 7 -192 c4 -106 5 -196 1 -199 -4 -4 -290 -9 -637 -10 l-631
-4 5 -287 5 -288 -90 -7 c-49 -3 -141 -6 -202 -6 l-112 0 -7 393 c-3 215 -9
555 -12 755 l-7 362 212 0 211 0 0 -265z m20211 -566 c4 -57 7 -179 8 -271 l1
-168 -798 0 -799 0 -6 122 c-7 117 -10 406 -4 410 2 2 1564 14 1582 12 6 0 13
-47 16 -105z m-19175 -1203 c133 -66 293 -249 357 -408 72 -180 103 -452 73
-628 -9 -52 -20 -98 -24 -102 -8 -7 -323 -40 -329 -34 -3 2 1 24 8 47 22 77
14 210 -20 356 -36 157 -48 188 -91 237 -41 47 -79 66 -127 66 -50 0 -82 -18
-109 -58 -29 -42 -42 -103 -54 -255 -26 -303 -82 -478 -191 -601 -100 -112
-256 -153 -405 -108 -193 60 -341 244 -411 512 -45 172 -43 475 3 683 l16 67
175 0 175 0 -6 -22 c-49 -168 -49 -171 -50 -348 l-1 -175 33 -67 c55 -113 145
-166 198 -117 36 33 54 106 64 261 20 280 83 463 211 603 93 101 193 138 353
131 66 -4 91 -10 152 -40z m18349 0 c242 -53 432 -179 559 -371 56 -84 152
-288 178 -379 20 -70 23 -103 23 -241 0 -126 -4 -173 -18 -220 -30 -98 -102
-235 -169 -318 -58 -74 -209 -207 -233 -207 -6 0 -47 42 -90 93 -43 50 -102
118 -129 150 -48 55 -49 59 -31 70 37 20 127 112 152 154 65 111 90 245 72
386 -15 117 -57 211 -130 291 -192 209 -555 220 -752 22 -131 -131 -199 -379
-153 -557 8 -31 16 -61 18 -68 3 -14 -397 -155 -417 -147 -12 4 -38 109 -56
221 -16 104 -14 346 5 433 81 374 376 636 794 702 79 12 293 5 377 -14z
m-4422 -373 c37 -40 51 -80 82 -233 51 -257 194 -714 282 -900 l44 -95 -41
-37 c-121 -108 -351 -237 -535 -301 -272 -94 -574 -123 -691 -67 -86 42 -110
93 -209 438 -120 424 -189 709 -178 745 12 43 51 63 166 86 179 36 521 167
816 313 180 88 220 96 264 51z m-13483 -1454 c212 -34 404 -133 554 -286 473
-485 322 -1284 -298 -1573 -446 -209 -991 -38 -1245 390 -248 417 -151 957
226 1260 215 173 500 252 763 209z m16533 -240 l128 -52 -66 -60 c-85 -77
-156 -178 -195 -277 -90 -235 -97 -385 -19 -425 37 -20 69 -19 127 3 91 35
192 112 416 321 238 220 442 331 605 331 84 0 132 -22 199 -89 247 -247 274
-745 61 -1141 -38 -71 -137 -210 -148 -210 -4 0 -85 53 -182 118 l-177 117 35
40 c45 51 112 193 152 318 55 172 37 309 -45 343 -76 32 -156 -4 -325 -146
-209 -175 -416 -318 -580 -400 -127 -64 -196 -84 -275 -77 -118 9 -195 77
-236 210 -20 63 -23 93 -23 232 1 177 15 268 67 415 36 102 77 184 131 265 46
68 188 215 208 215 7 0 71 -23 142 -51z m-1427 -8 c174 -84 252 -169 280 -302
28 -137 4 -248 -146 -679 -50 -146 -125 -363 -166 -483 -83 -247 -117 -317
-189 -393 -74 -79 -125 -71 -125 18 0 18 15 110 34 203 68 335 92 645 65 838
-21 153 -18 256 11 364 l24 92 -23 98 c-42 173 -39 208 21 258 46 39 114 35
214 -14z m533 -470 c72 -143 131 -482 115 -666 -11 -136 -28 -172 -191 -416
-327 -487 -431 -609 -518 -609 -83 0 -76 55 31 253 99 184 114 222 114 289 0
59 30 152 76 234 61 109 176 453 269 807 19 71 39 135 45 142 17 20 38 7 59
-34z m-9632 -899 c45 -54 196 -176 318 -255 348 -227 811 -401 1210 -453 265
-35 448 -46 809 -49 226 -2 372 -7 378 -13 16 -16 -28 -38 -122 -61 -131 -32
-249 -42 -572 -50 -163 -4 -300 -10 -304 -13 -3 -4 3 -34 15 -67 100 -290 116
-578 55 -1001 -20 -137 -66 -346 -110 -494 l-35 -118 49 -97 c71 -138 96 -210
83 -243 -12 -33 -45 -44 -74 -25 -12 8 -64 92 -116 188 -179 330 -382 654
-429 685 -61 40 -116 15 -182 -83 -41 -60 -44 -76 -18 -109 l23 -29 -25 16
c-14 9 -55 33 -92 53 -37 21 -70 41 -73 46 -6 10 169 179 223 215 52 35 124
37 174 7 47 -29 174 -163 241 -254 56 -76 88 -97 100 -64 16 42 29 408 24 676
-7 373 -28 513 -94 643 -61 122 -151 178 -353 222 -412 90 -838 321 -1203 655
-85 77 -73 126 28 116 31 -4 46 -13 72 -44z m-4642 -440 c138 -65 311 -204
477 -384 120 -131 708 -817 708 -826 -1 -8 -1272 -1064 -1286 -1069 -6 -2
-185 173 -400 389 -416 419 -520 540 -594 693 -50 103 -63 158 -58 242 5 89
36 152 109 224 89 88 139 104 319 103 142 0 185 -8 282 -49 15 -6 15 -3 -2 34
-50 102 -64 253 -35 366 34 127 116 249 198 290 46 24 61 26 132 23 65 -3 95
-11 150 -36z m2785 -1504 c11 -7 40 -42 62 -78 57 -90 57 -124 -3 -211 -96
-138 -179 -511 -179 -802 l0 -80 -37 7 c-21 4 -76 11 -122 16 -46 5 -86 12
-89 15 -11 10 -5 458 7 580 20 193 46 309 96 410 44 92 68 122 120 150 34 18
109 15 145 -7z m2580 -383 c157 -38 295 -138 346 -249 50 -110 91 -414 79
-591 -13 -198 -53 -317 -140 -413 -83 -91 -162 -117 -276 -88 -135 35 -424
153 -888 365 -335 152 -488 202 -677 218 -41 3 -81 11 -89 17 -32 24 -50 134
-50 301 l1 160 42 105 c24 58 47 115 52 128 12 27 31 28 55 2 29 -32 107 -78
171 -101 42 -15 93 -22 179 -26 184 -8 269 10 612 132 56 19 141 42 190 50
107 18 300 13 393 -10z m-1675 -1138 c72 -9 252 -26 401 -38 l272 -22 48 31
c26 18 50 32 53 32 43 -1 68 -114 34 -152 -21 -23 -31 -23 -344 7 -143 14
-319 29 -391 34 -126 8 -133 10 -153 35 l-21 27 -20 -22 c-18 -20 -19 -35 -15
-223 3 -221 10 -248 70 -299 61 -51 118 -62 321 -61 133 0 206 5 259 17 124
28 168 69 120 113 -20 18 -38 19 -303 19 -265 0 -283 1 -316 21 -71 41 -101
123 -60 164 32 32 66 34 206 15 119 -16 149 -16 281 -5 131 11 152 11 178 -3
52 -26 67 -52 74 -121 4 -36 10 -68 13 -71 3 -3 34 -11 68 -17 57 -11 64 -15
76 -45 16 -38 18 -123 4 -175 -8 -27 -18 -39 -42 -47 -21 -7 -198 -11 -538
-11 -433 0 -509 2 -520 15 -8 9 -18 123 -30 332 -11 175 -21 345 -24 378 -6
62 -2 78 24 88 22 9 126 3 275 -16z m2067 -468 c122 -26 221 -105 278 -223 43
-90 100 -135 219 -172 60 -19 239 -44 318 -44 34 0 69 -3 78 -6 34 -13 35 -49
14 -287 -24 -260 -22 -410 7 -689 22 -206 21 -206 -79 -253 -91 -43 -193 -65
-307 -65 -113 0 -189 23 -274 84 -105 75 -135 128 -77 139 24 5 30 12 35 44
14 82 -35 373 -120 706 -70 274 -110 391 -179 522 -72 137 -89 188 -74 217 20
37 72 46 161 27z m-2515 -496 c4 -9 -12 -73 -35 -142 -130 -394 -152 -706 -81
-1146 36 -227 106 -426 179 -508 18 -21 31 -40 28 -42 -2 -2 -47 -20 -100 -39
l-96 -35 -21 77 c-32 121 -77 343 -102 507 -31 199 -33 567 -6 744 34 217 130
526 179 578 25 27 46 29 55 6z m2534 -1168 c208 -162 307 -249 320 -281 12
-33 -6 -68 -51 -98 -57 -38 -157 -86 -179 -86 -18 0 -19 6 -15 73 7 100 -6
121 -156 245 -69 56 -158 133 -199 169 l-73 67 58 22 c101 39 100 40 295 -111z
m-815 -76 c-39 -46 -35 -83 17 -133 58 -57 361 -315 405 -346 29 -21 48 -25
106 -26 42 0 71 -5 73 -11 5 -13 -99 -87 -152 -109 -47 -19 -132 -17 -180 5
-22 10 -71 46 -110 81 -164 148 -494 463 -499 477 -13 32 -6 54 22 64 22 9
140 20 310 27 l34 2 -26 -31z m517 -68 c23 -16 74 -58 112 -94 90 -84 87 -91
-61 -134 -60 -18 -117 -32 -127 -32 -10 -1 -65 45 -123 101 -127 123 -127 123
36 169 90 25 115 23 163 -10z m1794 -763 c40 -44 67 -112 64 -160 -6 -94 -512
-343 -800 -393 -46 -8 -89 -15 -96 -15 -8 0 -15 24 -19 68 -4 37 -14 95 -22
130 -9 35 -14 64 -13 66 2 1 54 17 114 35 173 51 366 127 545 212 91 43 174
79 186 79 11 0 30 -10 41 -22z m-4370 -715 c297 -296 536 -481 768 -594 250
-121 400 -154 697 -152 156 2 199 -1 208 -12 16 -20 -23 -52 -90 -73 -78 -24
-403 -23 -545 2 -204 36 -310 83 -566 252 -283 186 -513 400 -646 600 -49 74
-47 133 4 134 7 0 83 -71 170 -157z"/>
<path d="M12168 21763 c-9 -10 -21 -35 -27 -55 -7 -20 -19 -42 -27 -49 -14
-11 -65 -9 -156 7 -34 6 -41 3 -69 -27 -30 -31 -37 -34 -93 -34 -61 0 -70 -6
-89 -60 -2 -5 -39 -12 -83 -15 l-79 -5 -5 -57 c-3 -31 -8 -60 -13 -64 -4 -4
-33 -11 -65 -15 -62 -9 -102 -40 -102 -82 0 -21 155 -165 322 -299 l58 -46 57
34 c141 85 175 6 107 -246 -43 -161 -46 -180 -40 -225 10 -66 56 -127 138
-185 153 -109 319 -173 495 -193 123 -13 171 -2 272 65 64 41 291 259 291 278
0 18 -109 -38 -193 -99 -96 -69 -210 -132 -286 -156 -103 -33 -203 -4 -311 91
-30 26 -62 54 -72 62 -9 7 -38 14 -65 16 -64 2 -118 33 -118 67 0 23 4 24 80
31 107 9 601 93 694 119 148 40 309 132 418 239 49 48 80 104 64 114 -17 11
-76 -15 -164 -72 -173 -112 -359 -194 -550 -243 -191 -48 -474 -74 -532 -47
-14 6 -28 22 -31 34 -8 29 43 469 56 494 8 15 21 20 49 20 34 0 42 5 60 36 19
32 25 35 61 33 32 -3 43 1 56 19 12 17 25 22 59 22 31 0 48 5 57 18 22 30 37
34 67 16 22 -13 35 -15 57 -7 33 10 64 6 64 -8 0 -7 20 -8 53 -4 42 5 56 4 66
-9 8 -9 22 -14 31 -11 10 3 26 -2 36 -12 10 -11 32 -18 53 -18 29 0 38 -5 49
-27 7 -16 18 -28 24 -28 6 0 26 -17 45 -37 33 -37 35 -37 49 -19 8 11 14 31
14 45 0 42 22 74 58 83 40 11 41 32 4 84 -78 107 -224 241 -357 327 -144 92
-265 140 -265 105 0 -25 -35 -48 -71 -48 -19 1 -59 14 -89 30 -63 34 -91 37
-112 13z"/>
<path d="M14273 20504 c-73 -36 -175 -134 -277 -265 -90 -115 -128 -180 -140
-235 -6 -25 -2 -37 19 -63 15 -17 33 -31 41 -31 8 0 34 -18 56 -40 47 -45 62
-49 80 -20 19 30 45 25 53 -10 4 -16 11 -33 17 -36 29 -18 62 97 77 270 12
138 29 169 139 248 95 69 123 110 104 153 -12 26 -65 55 -100 55 -10 0 -41
-12 -69 -26z"/>
<path d="M11907 13810 c-32 -10 -88 -38 -125 -63 -96 -64 -152 -82 -247 -81
-64 0 -99 7 -174 33 -151 53 -235 31 -286 -74 -31 -66 -38 -118 -26 -194 20
-123 78 -201 222 -299 74 -49 89 -66 89 -99 0 -23 -43 -9 -109 37 -69 49 -163
75 -235 65 -88 -11 -215 -106 -261 -194 -22 -44 -30 -121 -16 -164 7 -20 34
-69 61 -108 64 -95 79 -154 56 -231 -9 -31 -30 -85 -46 -120 -51 -108 -35
-199 47 -267 93 -77 229 -92 331 -36 66 36 173 145 266 271 79 107 126 154
155 154 48 0 101 -76 101 -144 0 -75 -71 -204 -188 -344 -83 -98 -84 -125 -10
-194 67 -62 151 -87 189 -55 38 31 220 316 275 430 18 38 41 100 51 138 11 44
22 68 29 65 41 -16 192 -28 302 -24 105 4 136 8 180 28 62 27 127 95 142 149
24 87 -2 252 -49 312 -42 54 -65 114 -65 169 -1 46 7 72 48 155 57 118 74 191
57 253 -15 53 -69 115 -136 153 -125 72 -222 8 -342 -224 -53 -103 -136 -198
-154 -180 -21 21 11 101 72 184 32 43 67 95 78 116 54 107 67 274 25 330 -12
15 -38 38 -60 50 -50 29 -162 30 -247 3z"/>
<path d="M11080 11759 c-36 -6 -85 -27 -141 -59 -190 -110 -287 -138 -515
-149 -151 -7 -166 -9 -220 -37 -76 -37 -104 -83 -104 -169 0 -76 40 -163 100
-219 72 -68 78 -126 14 -152 -43 -18 -74 -13 -158 27 -100 47 -151 35 -205
-50 -106 -165 -92 -306 49 -464 79 -90 90 -112 96 -210 7 -104 25 -154 72
-199 79 -77 193 -109 261 -73 50 26 109 105 175 235 71 138 88 160 114 143 25
-15 46 -81 82 -249 17 -82 42 -172 54 -199 29 -65 78 -121 129 -146 54 -28 81
-20 96 31 15 52 51 71 152 77 104 8 120 22 94 88 -9 25 -44 87 -78 138 -102
156 -126 226 -90 262 25 26 82 14 187 -39 50 -25 111 -48 136 -52 95 -12 308
67 387 144 55 54 78 105 78 177 0 87 -27 147 -102 227 -69 74 -83 100 -83 158
0 49 11 74 79 179 66 102 95 174 87 216 -11 58 -76 95 -166 95 -78 0 -134 -37
-264 -171 -129 -135 -153 -145 -149 -69 2 32 21 81 68 175 70 140 80 187 50
245 -37 71 -160 110 -285 89z"/>
<path d="M2742 16644 c-200 -53 -344 -216 -374 -421 -13 -93 3 -194 48 -289
36 -77 148 -190 227 -227 254 -122 563 -22 681 219 169 345 -73 737 -454 733
-41 0 -99 -7 -128 -15z"/>
<path d="M3392 10226 c-145 -37 -273 -142 -338 -279 -92 -194 -47 -427 110
-575 37 -34 93 -74 129 -91 329 -157 717 91 717 459 0 212 -135 400 -336 471
-75 26 -211 33 -282 15z"/>
<path d="M4994 8156 c-31 -22 -47 -70 -42 -121 7 -54 61 -169 119 -252 59 -83
259 -323 269 -323 5 0 65 47 134 105 l126 105 -102 123 c-133 160 -259 285
-333 332 -68 44 -136 56 -171 31z"/>
<path d="M4404 7532 c-17 -11 -38 -36 -48 -57 -15 -31 -16 -43 -6 -86 18 -76
75 -153 236 -322 l149 -154 115 109 c63 61 116 113 118 117 5 13 -164 196
-247 268 -143 123 -252 166 -317 125z"/>
</g>
</svg>
